<svg xmlns:xlink="http://www.w3.org/1999/xlink" xmlns="http://www.w3.org/2000/svg" viewBox="191.10000000000002 120.11999999999999 808.0799999999999 720.72" style="max-height: 500px" width="808.0799999999999" height="720.72">
	<path d="M795.554 439.087C797.158 396.832 796.466 353.42 796.046 311.119L795.592 215.981L795.453 165.544C795.438 152.156 795.271 138.76 796.163 125.393C806.264 137.34 821.44 158.265 826.845 172.81C832.478 183.513 836.872 195.093 841.127 206.395Q849.582 229.244 856.081 252.725Q862.579 276.206 867.075 300.151C869.799 314.413 871.708 328.829 874.245 343.124C875.389 350.545 878.762 366.614 877.904 373.195C879.781 387.501 880.813 401.991 881.879 416.376Q885.784 467.235 885.215 518.24C885.093 532.97 884.137 547.676 884.012 562.384C902.657 563.369 921.536 571.964 933.99 585.951C952.21 606.413 957.658 634.6 956.033 661.255C953.679 699.861 935.125 737.33 912.004 767.667C918.374 769.348 924.884 773.023 930.697 776.143C950.798 786.93 971.965 800.252 983.809 820.353C991.217 832.926 993.14 846.538 989.468 860.683C982.539 887.375 959.122 906.606 936.213 919.88C890.045 946.632 837.036 958.285 785.12 967.909Q771.739 970.268 758.316 972.374Q744.892 974.481 731.432 976.334Q717.971 978.188 704.479 979.788Q690.986 981.387 677.465 982.733Q663.944 984.078 650.401 985.169Q636.857 986.26 623.295 987.095Q609.733 987.931 596.158 988.511Q582.583 989.091 569 989.415Q555.416 989.74 541.829 989.809Q528.241 989.877 514.655 989.69Q501.069 989.503 487.489 989.06Q473.909 988.617 460.339 987.919Q446.77 987.221 433.216 986.267Q419.662 985.313 406.128 984.104Q392.594 982.896 379.086 981.432Q365.578 979.969 352.099 978.252C298.316 971.942 244.957 963.695 192.586 949.679C145.92 937.189 67.793 909.584 42.1282 865.248C37.2576 856.835 35.0622 848.276 34.0247 838.684C34.0268 837.298 34.1212 836.004 34.288 834.627C34.4061 831.684 34.9608 828.803 35.4454 825.903Q37.7641 818.962 41.1777 812.489C43.2095 809.087 45.2622 805.812 47.6546 802.651C55.9572 791.458 68.309 782.504 80.3623 775.768C83.446 785 86.7698 794 90.6704 802.919L93.0396 808.368C101.882 824.256 107.778 833.299 120.886 846.286C124.843 849.704 128.771 853.154 132.905 856.359C140.282 861.039 147.751 865.618 155.01 870.476L157.973 872.062C166.097 875.959 174.875 880.236 183.405 883.073C187.216 884.574 191.078 886.353 194.985 887.558C201.809 890.04 210.443 890.571 216.302 892.988C221.363 892.976 226.733 891.829 231.749 891.11L232.035 890.995C238.556 888.279 246.302 887.788 253.107 885.743Q260.439 883.564 267.603 880.885Q274.768 878.207 281.731 875.042Q288.695 871.877 295.424 868.241Q302.153 864.605 308.616 860.514C316.801 870.823 326.923 878.328 337.489 885.986L344.021 889.983C349.957 893.445 355.871 896.648 362.22 899.322C367.244 901.437 372.821 903.038 377.504 905.818C380.405 906.73 383.36 907.557 386.159 908.754Q400.566 912.883 414.615 918.101C417.559 918.833 420.566 919.489 423.463 920.387C429.457 921 435.339 922.463 441.133 924.079L450.808 925.824C459.01 927.07 467.438 927.959 475.489 929.982Q483.027 930.106 490.555 930.525C497.147 930.306 504.744 928.895 511.226 929.697C515.927 930.279 520.434 932.145 525.197 932.851C527.705 932.05 530.059 931.05 532.269 929.603C550.149 917.899 555.309 892.78 559.483 873.253C567.08 876.15 574.668 878.337 582.675 879.798C599.247 882.82 638.417 885.641 653.743 879.512C670.655 875.427 683.672 855.318 692.603 841.301C701.636 827.123 723.032 787.668 719.019 771.583C717.124 763.984 708.693 757.061 702.262 753.165C689.483 745.422 676.651 748.562 663.018 751.868C668.924 722.306 658.398 701.789 644.588 676.681Q637.864 667.631 630.937 658.736C634.502 651.292 640.775 644.351 645.755 637.77L676.306 597.711L795.554 439.087Z" transform="scale(1.33301 1.33301)" fill="white"/>
	<path d="M94.8484 850.714C102.079 850.025 109.996 851.429 117.132 852.536C99.9341 854.95 82.9631 856.244 65.6245 856.959C57.6679 857.327 49.8468 857.591 41.8882 856.984C59.5852 854.469 77.0049 852.053 94.8484 850.714Z" transform="scale(1.33301 1.33301)" fill="#9F522B"/>
	<path d="M423.463 920.387C429.457 921 435.339 922.463 441.133 924.079C427.912 931.197 405.04 932.965 390 934.707C401.384 930.526 412.429 925.404 423.463 920.387Z" transform="scale(1.33301 1.33301)" fill="#9F522B"/>
	<path d="M194.985 887.558C201.809 890.04 210.443 890.571 216.302 892.988C199.162 897.1 175.693 899.181 158.116 899.56C170.133 894.839 183.06 892.431 194.985 887.558Z" transform="scale(1.33301 1.33301)" fill="#9F522B"/>
	<path d="M450.808 925.824C459.01 927.07 467.438 927.959 475.489 929.982C460.919 937.914 431.833 939.126 415.445 938.874C427.053 934.386 440.204 932.534 450.808 925.824Z" transform="scale(1.33301 1.33301)" fill="#9F522B"/>
	<path d="M157.973 872.062C166.097 875.959 174.875 880.236 183.405 883.073C176.583 887.129 124.728 888.487 114.381 888.442C126.532 883.83 147.802 879.049 157.973 872.062Z" transform="scale(1.33301 1.33301)" fill="#9F522B"/>
	<path d="M490.555 930.525C497.147 930.306 504.744 928.895 511.226 929.697C515.927 930.279 520.434 932.145 525.197 932.851C524.766 933.205 524.689 933.281 524.159 933.641C505.424 946.378 470.708 945.109 448.768 941.534C462.835 939.649 478.064 937.611 490.555 930.525Z" transform="scale(1.33301 1.33301)" fill="#9F522B"/>
	<path d="M386.159 908.754Q400.566 912.883 414.615 918.101C404.224 923.975 382.825 928.578 370.917 928.076C363.795 927.776 356.785 926.143 349.846 924.617C361.722 918.921 374.856 915.556 386.159 908.754Z" transform="scale(1.33301 1.33301)" fill="#9F522B"/>
	<path d="M132.905 856.359C140.282 861.039 147.751 865.618 155.01 870.476C145.108 871.357 135.03 871.105 125.097 871.117C114.173 871.129 103.216 871.264 92.2968 870.881C79.4102 870.43 66.5201 869.361 53.6485 868.574C80.1111 864.796 106.386 859.65 132.905 856.359Z" transform="scale(1.33301 1.33301)" fill="#9F522B"/>
	<path d="M344.021 889.983C349.957 893.445 355.871 896.648 362.22 899.322C367.244 901.437 372.821 903.038 377.504 905.818C374.221 907.365 370.284 908.377 366.809 909.474C350.018 914.773 332.656 918.249 315.337 921.304C323.437 918.492 332.259 915.477 339.429 910.727C316.721 915.101 294.741 917.536 271.616 916.868C295.834 908.153 319.735 898.535 344.021 889.983Z" transform="scale(1.33301 1.33301)" fill="#9F522B"/>
	<path d="M231.749 891.11L232.035 890.995C238.556 888.279 246.302 887.788 253.107 885.743Q260.439 883.564 267.603 880.885Q274.768 878.207 281.731 875.042Q288.695 871.877 295.424 868.241Q302.153 864.605 308.616 860.514C316.801 870.823 326.923 878.328 337.489 885.986C306.164 895.366 275.823 902.676 243.474 907.568C254.444 902.727 265.655 898.46 276.621 893.611C285.569 889.654 294.219 885.165 302.986 880.835C289.18 882.774 240.393 893.05 231.749 891.11Z" transform="scale(1.33301 1.33301)" fill="#9F522B"/>
	<path d="M662.32 911.358C680.467 903.584 699.963 898.881 718.631 892.526C718.351 900.763 717.846 909.079 718.004 917.32C727.168 921.424 736.599 924.229 746.116 927.333C760.001 931.862 773.812 936.651 787.638 941.362C797.309 944.657 807.337 947.667 816.63 951.923C816.342 952.572 816.186 953.44 815.512 953.775C808.374 957.314 676.562 915.785 662.32 911.358Z" transform="scale(1.33301 1.33301)" fill="#9F522B"/>
	<path d="M80.3623 775.768C83.446 785 86.7698 794 90.6704 802.919L93.0396 808.368C101.882 824.256 107.778 833.299 120.886 846.286C105.471 848.923 73.5456 845.35 58.0794 842.302C52.4281 841.188 41.0573 836.856 35.8133 837.448C34.5192 837.594 34.7472 837.731 34.0247 838.684C34.0268 837.298 34.1212 836.004 34.288 834.627C34.4061 831.684 34.9608 828.803 35.4454 825.903Q37.7641 818.962 41.1777 812.489C43.2095 809.087 45.2622 805.812 47.6546 802.651C55.9572 791.458 68.309 782.504 80.3623 775.768Z" transform="scale(1.33301 1.33301)" fill="#9F522B"/>
	<path d="M35.4454 825.903Q54.9484 826.138 74.4497 825.794C83.6618 825.677 94.4717 824.672 103.487 826.607C87.0083 828.076 70.3777 830.302 53.9708 832.471C50.5493 832.923 37.0296 835.533 35.0503 835.206C34.8119 835.166 34.6291 834.969 34.4185 834.85L34.288 834.627C34.4061 831.684 34.9608 828.803 35.4454 825.903Z" transform="scale(1.33301 1.33301)" fill="white"/>
	<path d="M47.6546 802.651C54.4722 804.791 81.4804 802.888 90.6704 802.919L93.0396 808.368Q80.1793 810.451 67.1924 811.483Q54.2055 812.515 41.1777 812.489C43.2095 809.087 45.2622 805.812 47.6546 802.651Z" transform="scale(1.33301 1.33301)" fill="white"/>
	<path d="M80.3623 775.768C83.446 785 86.7698 794 90.6704 802.919C81.4804 802.888 54.4722 804.791 47.6546 802.651C55.9572 791.458 68.309 782.504 80.3623 775.768Z" transform="scale(1.33301 1.33301)" fill="#9F522B"/>
	<path d="M845.782 875.994C857.039 873.15 874.944 869.664 881.223 859.119C894.24 837.259 876.316 795.682 874.495 771.51C873.483 758.076 875.927 745.184 879.149 732.219C881.652 722.149 884.268 712.875 890.124 704.176C888.889 725.107 880.032 745.208 880.52 766.192C880.792 777.908 883.771 789.245 886.356 800.601C890.1 817.047 892.05 832.756 890.402 849.654C905.877 853.196 922.457 856.06 936.983 862.616Q936.834 884.495 936.434 906.371C921.302 915.935 898.031 923.587 881.052 930.634Q863.187 938.073 845.245 945.325C837.527 948.453 829.576 952.154 821.459 954.057L816.63 951.923C807.337 947.667 797.309 944.657 787.638 941.362C773.812 936.651 760.001 931.862 746.116 927.333C736.599 924.229 727.168 921.424 718.004 917.32C717.846 909.079 718.351 900.763 718.631 892.526C719.221 887.114 718.57 881.7 719.446 876.265C720.123 875.817 720.783 875.396 721.503 875.018C734.477 868.22 821.375 838.026 832.717 837.676C844.84 837.302 862.85 844.039 874.765 847.493C877.125 822.768 868.413 805.58 864.557 782.337C860.644 758.749 865.283 728.921 879.461 709.281C873.555 728.291 868.246 747.643 869.153 767.773C870.323 793.718 885.761 825.332 880.273 850.375C879.141 855.537 876.871 859.682 872.35 862.554C863.315 868.295 848.383 871.884 837.793 869.515C837.643 869.492 837.487 869.494 837.343 869.446C835.868 868.958 835.455 867.885 834.629 866.668Q829.471 868.602 824.332 870.588C831.488 872.314 838.713 873.936 845.782 875.994Z" transform="scale(1.33301 1.33301)" fill="#3E405B"/>
	<path d="M852.79 860.185L864.252 862.448C856.675 864.523 843.96 865.133 837.793 869.515C837.643 869.492 837.487 869.494 837.343 869.446C835.868 868.958 835.455 867.885 834.629 866.668C840.743 864.725 846.89 862.718 852.79 860.185Z" transform="scale(1.33301 1.33301)" fill="#615F60"/>
	<path d="M724.789 882.166C735.265 884.855 745.734 888.767 756.082 892.023C778.316 899.018 800.485 906.011 822.376 914.036C822.367 924.976 821.848 935.923 821.813 946.871C806.781 940.764 791.306 935.962 775.997 930.62C758.893 924.652 741.727 917.971 724.091 913.727C725.211 903.361 724.676 892.596 724.789 882.166Z" transform="scale(1.33301 1.33301)" fill="#9B8CC4"/>
	<path d="M929.625 870.094L929.91 870.375C931.734 875.326 930.162 897.154 929.962 903.468C914.114 911.334 897.356 917.637 880.993 924.353C862.223 932.056 843.461 940.261 824.156 946.516L823.767 946.153C821.765 940.917 823.149 918.633 824.865 912.862C834.732 906.649 860.219 898.825 872.154 894.327Q901.331 883.258 929.625 870.094Z" transform="scale(1.33301 1.33301)" fill="#9B8CC4"/>
	<path d="M832.591 842.45C837.097 842.903 841.845 844.593 846.245 845.757Q859.713 849.204 873.047 853.137C871.24 855.111 869.262 856.778 867.211 858.483C864.916 857.764 862.596 857.04 860.247 856.516Q859.066 856.257 857.865 856.121Q856.664 855.986 855.456 855.975Q854.247 855.965 853.044 856.079Q851.841 856.193 850.656 856.431C845.401 857.441 822.163 865.93 817.714 868.958C816.338 869.894 815.675 870.712 815.365 872.396C815.542 873.221 815.704 873.661 816.282 874.31C819.144 877.521 841.481 881.82 846.544 881.843C853.817 881.876 886.348 870.349 891.306 865.427L891.152 864.794C890.048 864.366 889.153 864.033 888.206 863.3C888.098 860.696 888.994 858.083 889.625 855.572Q908.847 860.63 928.133 865.433Q909.675 873.895 891.054 881.994C879.692 886.617 868.173 890.865 856.778 895.408C845.747 899.805 834.919 904.542 823.675 908.393C804.482 900.328 784.225 894.898 764.384 888.674C752.706 885.011 741.389 880.553 729.516 877.485C750.973 869.676 772.866 862.519 794.565 855.388C807.279 851.21 820.155 847.414 832.591 842.45Z" transform="scale(1.33301 1.33301)" fill="#9B8CC4"/>
	<path d="M795.554 439.087C797.158 396.832 796.466 353.42 796.046 311.119L795.592 215.981L795.453 165.544C795.438 152.156 795.271 138.76 796.163 125.393C806.264 137.34 821.44 158.265 826.845 172.81C832.478 183.513 836.872 195.093 841.127 206.395Q849.582 229.244 856.081 252.725Q862.579 276.206 867.075 300.151C869.799 314.413 871.708 328.829 874.245 343.124C875.389 350.545 878.762 366.614 877.904 373.195C868.889 385.086 859.355 396.533 850.039 408.184C842.004 418.232 834.39 428.586 825.451 437.867C827.303 447.636 826.089 458.507 826.05 468.446L826.043 525.056L826.05 741.96Q811.3 737.601 796.072 735.44Q796.814 689.554 796.445 643.663L795.984 476.958Q743.384 543.388 692.94 611.468L661.194 654.318C655.867 661.621 651.082 670.391 644.588 676.681Q637.864 667.631 630.937 658.736C634.502 651.292 640.775 644.351 645.755 637.77L676.306 597.711L795.554 439.087Z" transform="scale(1.33301 1.33301)" fill="white"/>
	<path d="M826.845 172.81C832.478 183.513 836.872 195.093 841.127 206.395Q849.582 229.244 856.081 252.725Q862.579 276.206 867.075 300.151C869.799 314.413 871.708 328.829 874.245 343.124C857.647 361.713 843.4 382.146 826.417 400.417L826.43 242.832L826.381 201.097C826.317 191.735 825.566 182.108 826.845 172.81Z" transform="scale(1.33301 1.33301)" fill="white"/>
	<path d="M84.1579 540.288C79.9824 533.969 76.4843 526.794 73.2391 519.956C51.6552 474.477 43.4941 419.341 50.063 369.484C60.7645 288.261 111.857 218.156 175.761 169.173C295.961 77.0385 487.041 27.2033 637.341 47.2389C645.177 48.4291 653.044 49.5494 660.777 51.3166C703.918 62.2751 739.5 73.9145 774.162 103.117C778.437 106.618 786.182 112.33 788.868 116.941Q792.583 121.109 796.163 125.393C795.271 138.76 795.438 152.156 795.453 165.544L795.592 215.981L796.046 311.119C796.466 353.42 797.158 396.832 795.554 439.087L676.306 597.711L645.755 637.77C640.775 644.351 634.502 651.292 630.937 658.736Q637.864 667.631 644.588 676.681C658.398 701.789 668.924 722.306 663.018 751.868C676.651 748.562 689.483 745.422 702.262 753.165C708.693 757.061 717.124 763.984 719.019 771.583C723.032 787.668 701.636 827.123 692.603 841.301C683.672 855.318 670.655 875.427 653.743 879.512C638.417 885.641 599.247 882.82 582.675 879.798C574.668 878.337 567.08 876.15 559.483 873.253C555.309 892.78 550.149 917.899 532.269 929.603C530.059 931.05 527.705 932.05 525.197 932.851C520.434 932.145 515.927 930.279 511.226 929.697C504.744 928.895 497.147 930.306 490.555 930.525Q483.027 930.106 475.489 929.982C467.438 927.959 459.01 927.07 450.808 925.824L441.133 924.079C435.339 922.463 429.457 921 423.463 920.387C420.566 919.489 417.559 918.833 414.615 918.101Q400.566 912.883 386.159 908.754C383.36 907.557 380.405 906.73 377.504 905.818C372.821 903.038 367.244 901.437 362.22 899.322C355.871 896.648 349.957 893.445 344.021 889.983L337.489 885.986C326.923 878.328 316.801 870.823 308.616 860.514Q302.153 864.605 295.424 868.241Q288.695 871.877 281.731 875.042Q274.768 878.207 267.603 880.885Q260.439 883.564 253.107 885.743C246.302 887.788 238.556 888.279 232.035 890.995L231.749 891.11C226.733 891.829 221.363 892.976 216.302 892.988C210.443 890.571 201.809 890.04 194.985 887.558C191.078 886.353 187.216 884.574 183.405 883.073C174.875 880.236 166.097 875.959 157.973 872.062L155.01 870.476C147.751 865.618 140.282 861.039 132.905 856.359C128.771 853.154 124.843 849.704 120.886 846.286C107.778 833.299 101.882 824.256 93.0396 808.368L90.6704 802.919C86.7698 794 83.446 785 80.3623 775.768C76.1914 764.771 73.5269 752.792 70.9193 741.337C59.6281 691.735 55.7776 640.343 62.4041 589.806C63.5388 581.152 64.6765 572.357 66.6268 563.842C69.1441 552.852 74.6939 546.238 84.1579 540.288Z" transform="scale(1.33301 1.33301)" fill="#3E405B"/>
	<path d="M543.904 756.427C546.875 756.389 549.87 758.046 552.295 759.673C554.712 761.294 557.143 763.239 557.699 766.203C554.437 765.295 550.994 763.452 548.218 761.515C546.275 760.161 544.365 758.88 543.904 756.427Z" transform="scale(1.33301 1.33301)" fill="#FFC3BE"/>
	<path d="M277.534 523.707L277.366 523.307C278.384 520.879 284.566 517.328 286.849 515.64L293.369 518.526C288.808 520.904 282.654 523.111 277.534 523.707Z" transform="scale(1.33301 1.33301)" fill="#CABCD3"/>
	<path d="M640.085 734.173C640.106 734.181 640.129 734.185 640.148 734.197C641.819 735.209 643.434 738.453 643.944 740.358C644.246 741.485 644.294 741.022 643.745 741.971C641.357 741.719 640.282 738.831 638.417 737.559C637.126 736.68 635.948 737.308 634.576 737.633C633.313 738.844 632.69 740.049 631.942 741.598L631.592 742.332C630.35 741.735 630.119 741.088 629.362 739.987C629.304 739.163 629.091 738.777 629.609 738.062C631.536 735.404 637.006 734.626 640.085 734.173Z" transform="scale(1.33301 1.33301)" fill="white"/>
	<path d="M540.061 760.127C543.281 761.337 553.881 766.539 555.112 769.451C555.422 770.185 554.739 770.973 554.419 771.634C553.798 771.9 553.148 772.075 552.503 772.275C548.082 771.121 543.264 767.554 540.403 764.024C539.356 762.733 539.823 761.616 540.061 760.127Z" transform="scale(1.33301 1.33301)" fill="#151515"/>
	<path d="M591.318 625.915C591.895 626.107 592.167 626.166 592.723 626.522C593.759 627.187 594.418 628.012 594.562 629.188C588.369 636.045 579.766 641.817 572.524 647.612C571.428 648.199 571.477 648.298 570.294 647.976L570.02 646.97C571.033 640.912 586.452 629.86 591.318 625.915Z" transform="scale(1.33301 1.33301)" fill="#9B8CC4"/>
	<path d="M183.825 303.378C184.694 315.184 182.561 321.13 186.316 333.612C186.824 335.3 187.353 337.06 188.101 338.658C189.575 341.808 195.642 350.035 195.689 352.903C195.703 353.723 194.71 354.127 194.122 354.589C190.893 352.994 188.078 348.281 186.488 345.106C180.208 332.564 179.491 316.665 183.825 303.378Z" transform="scale(1.33301 1.33301)" fill="#FFC3BE"/>
	<path d="M617.974 755.47C626.393 755.429 637.715 764.08 646.28 767.24Q636.628 771.446 626.872 775.402L626.829 774.795C626.203 766.452 624.467 761.058 617.974 755.47Z" transform="scale(1.33301 1.33301)" fill="white"/>
	<path d="M236.8 547.931C228.166 539.323 218.16 528.52 213.506 517.215C219.763 519.168 225.399 522.06 230.811 525.723L231.031 526.261C233.147 531.328 239.834 540.86 237.665 546.291C237.435 546.866 237.119 547.402 236.8 547.931Z" transform="scale(1.33301 1.33301)" fill="#FEFEFE"/>
	<path d="M565.255 773.343C567.223 775.567 568.804 784.887 569.714 788.225C562.494 792.107 554.256 793.898 546.395 796.007L544.092 791.5C542.188 787.407 540.536 783.176 538.799 779.008C542.75 781.208 546.76 782.612 551.08 783.891C557.334 781.41 560.922 778.409 565.255 773.343Z" transform="scale(1.33301 1.33301)" fill="white"/>
	<path d="M402.039 620.977Q426.102 622.501 450.204 623.151C446.253 624.259 442.373 625.659 438.487 626.973C430.976 629.653 423.853 633.323 416.717 636.849C411.715 631.67 407.047 626.164 402.039 620.977Z" transform="scale(1.33301 1.33301)" fill="#9B8CC4"/>
	<path d="M619.933 762.484C621.486 765.268 623.745 769.863 622.847 773.144C622.582 774.114 622.042 774.717 621.107 775.142C617.781 776.652 606.767 776.05 601.385 777.196C591.505 779.3 581.717 783.428 572.33 787.123C571.619 784.675 570.734 782.173 570.27 779.668C587.299 776.324 603.969 769.127 619.933 762.484Z" transform="scale(1.33301 1.33301)" fill="#9F522B"/>
	<path d="M570.941 768.701C584.925 770.373 598.482 758.619 612.543 758.992C615.937 759.082 617.674 760.025 619.933 762.484C603.969 769.127 587.299 776.324 570.27 779.668C568.889 776.393 567.53 773.201 565.723 770.134L570.941 768.701Z" transform="scale(1.33301 1.33301)" fill="white"/>
	<path d="M549.347 177.596C556.569 185.27 562.238 193.375 567.036 202.749C554.631 201.297 542.286 200.035 529.782 199.977C536.383 192.432 543.684 185.989 549.347 177.596Z" transform="scale(1.33301 1.33301)" fill="white"/>
	<path d="M269.54 505.007C275.035 509.232 280.711 512.481 286.849 515.64C284.566 517.328 278.384 520.879 277.366 523.307L277.534 523.707C261.472 528.433 247.158 525.454 231.571 520.367C247.073 517.719 256.823 514.307 269.54 505.007Z" transform="scale(1.33301 1.33301)" fill="#9B8CC4"/>
	<path d="M263.569 680.586C266.717 686.209 268.584 694.537 269.013 700.941L269.96 702.292C271.575 726.462 274.453 749.866 280.161 773.441C281.569 779.255 282.862 785.767 285.246 791.261C283.148 792.975 281.192 794.911 279.197 796.746C268.081 754.89 262.922 723.948 263.569 680.586Z" transform="scale(1.33301 1.33301)" fill="#FEFEFE"/>
	<path d="M570.285 604.55C570.419 604.529 570.552 604.49 570.688 604.487C570.693 604.487 572.058 604.557 572.094 604.573C573.829 605.357 577.126 610.324 578.519 611.854C581.966 615.639 585.588 619.224 589.263 622.786C581.311 628.611 574.306 635.064 567.374 642.035C559.667 630.911 557.951 622.956 547.456 611.771C554.976 608.983 562.547 606.645 570.285 604.55Z" transform="scale(1.33301 1.33301)" fill="#9B8CC4"/>
	<path d="M561.243 863.463C587.552 872.343 613.477 876.804 641.322 873.091C645.193 876.592 648.709 878.108 653.743 879.512C638.417 885.641 599.247 882.82 582.675 879.798C574.668 878.337 567.08 876.15 559.483 873.253L561.243 863.463Z" transform="scale(1.33301 1.33301)" fill="#9F522B"/>
	<path d="M534.061 162.653C539.31 167.509 544.48 172.351 549.347 177.596C543.684 185.989 536.383 192.432 529.782 199.977C519.304 200.252 509.166 200.951 498.79 202.444C508.895 188.114 521.825 175.193 534.061 162.653Z" transform="scale(1.33301 1.33301)" fill="white"/>
	<path d="M663.461 265.808C674.582 272.417 689.161 293.153 695.03 304.762C705.874 326.213 711.664 355.969 704.038 379.305C703.65 380.369 703.682 380.877 702.741 381.558C700.338 379.598 694.059 363.515 692.837 359.899C690.603 353.287 689.941 346.498 688.734 339.663Q686.948 329.901 684.138 320.383C681.27 310.77 678.026 301.159 674.214 291.877C670.652 283.204 666.516 274.67 663.461 265.808Z" transform="scale(1.33301 1.33301)" fill="#9B8CC4"/>
	<path d="M437.171 666.918C439.969 667.491 444.793 673.898 446.844 676.197C425.982 684.689 399.651 703.109 386.079 721.574C380.392 729.313 376.381 737.825 371.092 745.718L370.137 745.726C366.219 741.996 362.49 738.038 358.702 734.175C378.72 702.232 401.693 680.865 437.171 666.918Z" transform="scale(1.33301 1.33301)" fill="#9B8CC4"/>
	<path d="M461.325 556.53C477.289 555.97 500.57 561.72 516.015 565.739C519.498 566.645 525.832 567.982 527.621 571.428C529.284 574.632 528.94 580.968 527.583 584.304C526.333 587.376 524.441 589.192 521.418 590.442C519.658 590.9 518.004 590.974 516.195 590.997C504.73 591.145 463.936 587.672 456.585 579.946C454.947 578.225 454.383 575.826 454.411 573.509C454.486 567.349 456.806 560.747 461.325 556.53Z" transform="scale(1.33301 1.33301)" fill="#9B8CC4"/>
	<path d="M608.771 779.028C609.096 778.999 609.421 778.937 609.748 778.941C610.51 778.951 611.107 779.048 611.61 779.629C612.744 780.94 612.634 782.591 612.402 784.204C611.621 789.648 609.231 795.332 607.087 800.355C597.363 823.136 581.473 840.165 561.533 854.5L561.702 846.376C562.201 829.04 560.208 814.159 550.447 799.461C569.956 792.45 588.793 784.788 608.771 779.028Z" transform="scale(1.33301 1.33301)" fill="#FEFEFE"/>
	<path d="M487.051 123.178C491.249 123.111 495.408 123.57 499.543 124.267C534.112 130.095 566.492 151.072 589.753 176.971C600.899 189.382 610.451 203.196 620.077 216.79C616.344 215.498 613.292 212.798 609.745 211.076C598.264 205.505 587.047 202.937 574.427 201.899C552.02 167.269 523.765 141.95 487.051 123.178Z" transform="scale(1.33301 1.33301)" fill="#9B8CC4"/>
	<path d="M549.038 688.713C561.261 687.82 573.684 689.569 585.697 691.724Q588.681 698.754 591.837 705.708C569.438 712.99 546.477 718.955 523.901 725.73C520.496 726.961 516.946 727.925 513.485 728.997C502.318 722.201 492.11 712.906 483.211 703.342C503.631 693.464 526.739 690.804 549.038 688.713Z" transform="scale(1.33301 1.33301)" fill="#FEFEFE"/>
	<path d="M338.804 764.1C348.237 760.176 357.75 756.541 367.706 754.151C389.706 771.312 404.119 780.773 429.797 792.44C412.746 801.829 397.922 811.52 386.598 827.787C366.313 815.92 349.311 784.854 338.804 764.1Z" transform="scale(1.33301 1.33301)" fill="#FEFEFE"/>
	<path d="M705.495 764.416C708.475 766.83 711.404 771.127 712.297 774.839C715.497 788.143 699.709 817.9 692.539 830.067C685.677 841.71 667.926 870.181 654.949 873.091C653.09 873.508 651.006 873.344 649.404 872.231C645.639 869.615 644.209 863.879 643.461 859.606C643.309 837.363 655.309 805.088 670.03 788.077L672.93 792.54C679.946 784.704 684.282 776.685 689.015 767.383C690.767 772.99 692.354 781.945 697.666 785.216C698.912 785.356 699.564 785.557 700.629 784.693C704.88 781.244 705.351 769.455 705.495 764.416Z" transform="scale(1.33301 1.33301)" fill="#9B8CC4"/>
	<path d="M686.377 796.556C687.454 796.611 688.373 796.696 689.384 797.099C691.237 797.837 692.608 799.234 693.322 801.097C695.709 807.33 692.377 816.361 689.872 822.149C684.275 835.082 676.162 852.406 662.336 857.848C660.693 857.76 659.262 857.688 657.785 856.891C656.04 855.949 654.954 853.906 654.451 852.068C651.482 841.211 662.111 821.563 667.752 812.331C672.127 805.17 677.902 798.554 686.377 796.556Z" transform="scale(1.33301 1.33301)" fill="#3E405B"/>
	<path d="M230.811 525.723C244.496 531.178 258.171 534.049 272.962 532.059C283.31 556.739 328.253 581.248 352.713 591.271Q371.232 598.738 390.591 603.633C399.192 605.848 436.073 612.104 441.097 615.556C438.306 616.168 434.992 616.001 432.134 615.989C413.587 615.911 394.826 613.338 376.568 610.285C325.243 601.701 274.226 585.818 236.8 547.931C237.119 547.402 237.435 546.866 237.665 546.291C239.834 540.86 233.147 531.328 231.031 526.261L230.811 525.723Z" transform="scale(1.33301 1.33301)" fill="#FFC3BE"/>
	<path d="M519.307 842.004C526.416 837.297 533.162 825.22 535.344 817.098C535.643 815.986 535.942 815.036 536.417 813.986L537.395 813.622C539.524 814.79 544.201 831.259 545.991 835.086C546.058 835.229 546.122 835.373 546.187 835.517C547.248 833.867 548.315 832.285 549.553 830.763L550.844 830.529C552.794 827.476 553.691 822.599 554.718 819.098C557.833 846.242 554.108 883.925 541.605 908.355C538.451 914.517 533.347 922.846 526.32 924.923Q525.765 925.093 525.196 925.206Q524.626 925.319 524.048 925.375Q523.471 925.431 522.89 925.429Q522.31 925.427 521.732 925.366Q521.155 925.306 520.586 925.189Q520.018 925.071 519.464 924.898Q518.91 924.724 518.376 924.496Q517.842 924.268 517.334 923.988C511.085 920.578 507.661 912.004 505.7 905.514C503.338 897.698 502.5 889.645 502.426 881.507C502.218 858.887 506.934 854.268 516.896 835.463C517.602 837.67 518.491 839.835 519.307 842.004Z" transform="scale(1.33301 1.33301)" fill="#9B8CC4"/>
	<path d="M537.395 813.622C539.524 814.79 544.201 831.259 545.991 835.086C546.058 835.229 546.122 835.373 546.187 835.517C547.248 833.867 548.315 832.285 549.553 830.763L550.844 830.529C550.104 832.706 549.001 836.111 547.012 837.379C546.255 837.862 545.915 837.604 545.089 837.468C540.446 833.572 538.542 819.8 537.395 813.622Z" transform="scale(1.33301 1.33301)" fill="#151515"/>
	<path d="M534.723 846.997C536.166 847.006 537.5 847.062 538.876 847.546C542.078 848.673 544.419 851.057 545.8 854.129C550.678 864.982 546.759 882.227 542.888 892.867C540.119 900.478 536.62 907.888 528.914 911.473C526.825 911.585 524.936 911.588 523.027 910.613C519.853 908.99 517.868 905.849 516.778 902.551C512.603 889.921 516.073 871.061 522.057 859.467C524.878 854 528.637 848.925 534.723 846.997Z" transform="scale(1.33301 1.33301)" fill="#3E405B"/>
	<path d="M519.533 733.368C550.615 726.32 580.538 714.484 611.478 706.925C623.471 710.827 633.877 719.62 641.821 729.176C634.938 730.089 627.398 731.724 620.946 734.235C619.872 735.828 618.861 737.47 617.825 739.088C621.646 746.11 625.313 751.711 632.247 756.021C639.466 754.949 645.565 752.53 652.099 749.329C651.687 755.795 651.341 762.516 646.28 767.24C637.715 764.08 626.393 755.429 617.974 755.47C604.845 754.508 582.198 761.79 570.941 768.701L565.723 770.134C565.889 768.219 566.566 766.594 567.249 764.81C558.593 755.449 549.868 752.687 539.032 746.819C531.989 743.005 525.65 738.522 519.533 733.368Z" transform="scale(1.33301 1.33301)" fill="#FFC3BE"/>
	<path d="M592.838 721.22C593.779 721.18 594.778 721.126 595.696 721.368C599.746 722.437 602.293 727.275 604.316 730.591C594.702 738.332 572.024 740.273 559.75 741.64C556.528 742.21 552.153 742.795 549.414 740.593C548.32 739.713 548.206 739.006 547.979 737.678C548.317 736.585 548.631 735.743 549.382 734.861C556.231 726.815 581.875 722.295 592.838 721.22Z" transform="scale(1.33301 1.33301)" fill="#3E405B"/>
	<path d="M589.439 726.13C589.789 726.386 589.56 726.18 589.871 726.945C589.774 727.084 589.691 727.233 589.581 727.361C584.752 732.976 564.042 737.022 556.563 737.32C556.309 736.933 556.287 736.528 556.2 736.079C558.787 732.043 583.536 727.792 589.439 726.13Z" transform="scale(1.33301 1.33301)" fill="#9F522B"/>
	<path d="M281.055 801.002C298.944 786.839 317.956 773.571 338.804 764.1C349.311 784.854 366.313 815.92 386.598 827.787C379.801 839.534 374.536 851.935 373.845 865.646C373.116 880.099 377.185 890.07 386.795 900.677C383.141 899.565 379.521 898.231 375.962 896.842C324.241 876.665 302.887 850.514 281.055 801.002Z" transform="scale(1.33301 1.33301)" fill="#FFC3BE"/>
	<path d="M248.831 335.214C268.401 335.755 285.465 339.888 300.591 353.036C321.708 371.39 331.751 400.512 333.597 427.779C335.11 450.129 332.052 474.435 319.667 493.583C316.593 498.335 312.808 502.52 309.089 506.767C306.291 505.511 300.41 504.051 298.859 501.636C298.912 500.054 299.694 498.982 300.473 497.657L300.853 497.017L300.126 495.617L300.78 494.755L302.882 494.533C308.278 490.884 305.109 484.753 307.107 481.331L308.714 481.826C309.661 480.069 308.739 477.632 309.278 475.592L310.389 475.749C311.954 474.498 312.376 472.348 312.932 470.466C313.52 468.473 314.639 465.705 313.601 463.791L312.793 463.974C310.01 467.088 305.917 482.333 303.389 487.697C301.296 492.378 298.493 496.549 295.622 500.772L278.262 490.777C282.223 483.474 285.872 475.968 288.338 468.016C295.794 443.979 291.702 417.241 280.017 395.24C271.7 379.581 258.011 365.058 240.596 359.92C221.903 354.405 207.1 361.304 191.007 370.203Q193.378 366.311 196.326 362.835C208.695 348.295 229.704 336.697 248.831 335.214Z" transform="scale(1.33301 1.33301)" fill="#9B8CC4"/>
	<path d="M286.865 355.769C297.417 359.114 311.172 391.987 313.895 401.964C314.924 405.735 314.317 414.068 316.213 416.615C316.314 416.752 316.434 416.875 316.526 417.018C318.907 420.73 316.894 446.209 316.072 451.77C315.607 452.928 315.539 453.495 314.537 454.314C313.692 453.315 313.696 452.578 313.727 451.306C313.797 448.443 314.426 445.554 314.535 442.662Q315.026 429.207 313.584 415.82C311.829 399.331 304.219 382.16 295.687 368.078C293.131 363.858 289.21 360.849 287.094 356.282C287.015 356.112 286.941 355.94 286.865 355.769Z" transform="scale(1.33301 1.33301)" fill="#3E405B"/>
	<path d="M544.654 611.643C545.21 611.72 544.914 611.643 545.528 611.92C549.199 619.516 554.052 626.682 558.125 634.096C567.759 651.637 577.046 669.756 584.573 688.307C556.322 682.127 524.443 683.525 496.99 692.754C490.788 694.839 485.072 697.64 479.129 700.313L470.931 692.358C463.095 684.689 455.17 677.06 447.604 669.123C438.208 659.267 429.183 649.092 419.668 639.341C422.663 637.906 425.893 636.847 428.939 635.493C439.222 630.923 449.446 625.763 460.479 623.23C470.081 621.025 480.292 622.045 490.055 620.977C508.434 618.966 526.581 615.469 544.654 611.643Z" transform="scale(1.33301 1.33301)" fill="#9B8CC4"/>
	<path d="M302.541 253.273C312.881 230.992 328.738 210.407 345.04 192.188Q347.396 189.506 349.84 186.903Q352.283 184.3 354.812 181.78Q357.341 179.259 359.952 176.824Q362.562 174.389 365.253 172.042Q367.943 169.695 370.709 167.439Q373.476 165.182 376.316 163.018Q379.156 160.855 382.066 158.787Q384.976 156.719 387.953 154.748Q390.93 152.778 393.971 150.907Q397.012 149.036 400.113 147.267Q403.214 145.499 406.372 143.834Q409.53 142.169 412.742 140.609Q415.954 139.05 419.215 137.598Q422.477 136.146 425.785 134.803Q429.093 133.461 432.444 132.228Q435.794 130.996 439.184 129.875C447.653 126.989 456.904 123.541 465.912 123.213C482.715 122.599 521.094 150.572 534.061 162.653C521.825 175.193 508.895 188.114 498.79 202.444L483.467 205.946C487.885 193.196 494.241 180.925 501.278 169.443Q500.697 169.444 500.117 169.464C478.876 170.25 455.943 184.098 440.291 197.597C432.662 204.176 425.858 211.55 418.989 218.898C379.75 224.103 343.096 238.067 309.041 258.111L302.541 253.273Z" transform="scale(1.33301 1.33301)" fill="white"/>
	<path d="M264.314 501.501C254.091 508.627 242.78 514.143 230.018 513.488C214.123 512.673 200.793 504.874 190.388 493.123C174.902 475.632 166.651 449.364 168.16 426.159C169.306 408.553 175.675 388.848 189.415 377.025C200.317 367.643 215.161 363.279 229.434 364.515C244.124 365.788 257.428 374.973 266.612 386.123C281.589 404.307 286.791 429.919 284.379 452.955C283.531 461.059 277.526 484.101 270.99 488.735C270.823 488.853 270.633 488.934 270.454 489.033C269.632 489.738 268.878 490.289 268.366 491.262C322.157 520.994 391.051 551.061 451.31 563.056L449.588 568.388C394.019 557.274 340.004 535.577 290.348 508.538C279.518 502.641 267.335 497.256 259.236 487.711C257.928 490.151 256.878 492.709 255.794 495.253C258.508 497.484 261.451 499.465 264.314 501.501Z" transform="scale(1.33301 1.33301)" fill="#9B8CC4"/>
	<path d="M257.775 484.978C262.435 485.704 266.183 487.043 270.454 489.033C269.632 489.738 268.878 490.289 268.366 491.262C264.77 489.335 260.972 487.528 257.775 484.978Z" transform="scale(1.33301 1.33301)" fill="#151515"/>
	<path d="M211.108 389.589C218.068 388.777 224.985 390.797 230.757 394.673C242.379 402.479 249.056 417.212 251.503 430.586C254.167 445.148 252.173 462.467 243.433 474.777C238.272 482.047 231.846 485.876 223.087 487.348C216.454 488.097 209.787 486.367 204.132 482.891C192.749 475.893 186.057 462.723 183.122 450.073C179.627 435.013 181.048 417.801 189.422 404.523C194.757 396.063 201.402 391.767 211.108 389.589Z" transform="scale(1.33301 1.33301)" fill="#3E405B"/>
	<path d="M211.925 395.559Q213.335 395.547 214.739 395.688Q216.142 395.829 217.522 396.122Q218.901 396.415 220.241 396.856Q221.58 397.297 222.864 397.882C232.419 402.151 238.784 411.56 242.323 421.089C247.39 434.727 248.327 451.129 241.986 464.53C238.109 472.722 232.282 477.568 223.795 480.58C218.377 480.651 213.849 480.374 208.907 477.782C199.761 472.985 194.014 463.023 190.91 453.513C186.508 440.026 186.559 423.723 193.126 410.922C197.333 402.722 203.271 398.365 211.925 395.559Z" transform="scale(1.33301 1.33301)" fill="#9B8CC4"/>
	<path d="M443.343 104.219C484.107 101.809 526.449 111.945 560.565 134.674C615.816 171.482 641.323 226.21 664.81 286.034C672.741 306.236 681.333 326.094 685.583 347.472C677.913 334.993 670.181 322.832 661.27 311.185C654.679 302.572 647.282 294.515 640.879 285.786C641.305 285.131 641.721 284.481 642.11 283.803C647.459 274.472 645.446 261.88 642.72 252.035C638.716 237.575 631.835 223.573 624.157 210.727C604.747 178.251 578.915 151.102 545.793 132.419C522.098 119.053 503.056 113.883 475.699 115.897C463.182 116.818 451.318 118.985 439.246 122.351C418.57 129.2 399.402 138.458 381.499 150.918C322.527 191.962 282.135 260.504 269.53 330.756C267.051 330.439 264.578 329.982 262.11 329.585C263.277 325.535 263.575 321.384 264.492 317.287C265.238 313.954 266.552 310.772 267.422 307.471C268.003 305.263 268.369 302.904 269.237 300.79C269.899 299.18 270.104 298.762 269.745 297.086L269.066 297.365C264.174 307.132 262.478 318.815 260.829 329.511C245.324 329.059 232.174 331.494 217.873 337.55C218.175 322.051 222.19 306.771 226.617 292.003C239.279 249.76 258.518 211.415 288.568 178.814C330.569 133.248 381.095 106.81 443.343 104.219Z" transform="scale(1.33301 1.33301)" fill="#9B8CC4"/>
	<path d="M459.774 107.674C463.585 107.241 467.455 107.344 471.287 107.337C460.963 110.338 450.062 111.033 439.634 114.092C396.041 126.88 363.001 151.623 330.948 182.882C329.509 184.947 328.321 187.05 326.144 188.395C326.384 186.769 328.31 184.697 329.342 183.379C334.487 176.802 340.585 171.092 346.685 165.425C375.975 138.216 419.615 112.669 459.774 107.674Z" transform="scale(1.33301 1.33301)" fill="#3E405B"/>
	<path d="M263.569 680.586C263.202 669.936 268.511 592.679 273.315 586.04C274.748 585.487 274.768 585.731 276.199 586.361C314.412 607.412 355.684 615.618 398.613 620.673C410.349 635.116 421.921 649.742 434.299 663.643C425.839 666.807 417.606 670.208 409.788 674.791C388.43 687.31 366.289 708.909 355.211 731.038C345.053 720.043 335.704 708.798 326.506 697.005C335.972 716.531 346.97 734.789 363.023 749.73C335.204 759.868 308.378 772.451 285.246 791.261C282.862 785.767 281.569 779.255 280.161 773.441C274.453 749.866 271.575 726.462 269.96 702.292L269.013 700.941C268.584 694.537 266.717 686.209 263.569 680.586Z" transform="scale(1.33301 1.33301)" fill="#9B8CC4"/>
	<path d="M263.569 680.586C263.202 669.936 268.511 592.679 273.315 586.04C274.748 585.487 274.768 585.731 276.199 586.361C274.866 592.602 274.224 599.118 273.376 605.448Q271.87 617.485 270.902 629.578Q269.934 641.67 269.506 653.794Q269.079 665.917 269.192 678.048Q269.306 690.179 269.96 702.292L269.013 700.941C268.584 694.537 266.717 686.209 263.569 680.586Z" transform="scale(1.33301 1.33301)" fill="white"/>
	<path d="M194.467 507.582C196.324 507.563 198.224 509.206 199.658 510.312C207.474 516.346 210.67 526.45 216.218 534.374C229.905 553.92 248.502 569.775 268.945 581.888C264.059 595.295 262.359 609.155 259.825 623.111C244.002 610.397 227.698 600.44 207.829 595.374C229.382 607.099 241.962 616.937 257.724 635.742C245.809 631.438 234.694 629.582 222.121 628.852C235.065 633.296 246.935 639.625 257.405 648.465C254.587 663.673 255.241 680.596 255.271 695.998C244.005 692.89 232.903 692.019 221.27 692.123C230.096 694.863 249.601 697.993 255.138 705.498C256.034 706.713 256.17 707.661 255.888 709.101C252.328 711.735 245.428 712.496 241.185 713.899C237.491 715.12 233.957 716.594 230.425 718.218C239.359 717.208 247.546 717.433 256.458 718.698C256.736 734.061 260.182 749.902 263.321 764.876Q261.26 765.028 259.209 765.286Q257.159 765.543 255.124 765.905Q253.089 766.266 251.076 766.731Q249.062 767.196 247.074 767.763Q245.087 768.33 243.131 768.997Q241.175 769.665 239.256 770.431Q237.337 771.198 235.459 772.061Q233.581 772.924 231.75 773.882C240.018 772.498 254.284 770.359 262.145 772.146C263.369 772.424 263.955 772.582 264.602 773.708C263.267 777.067 257.36 781.43 254.782 784.732C252.752 787.331 251.236 790.319 249.67 793.209C254.932 788.524 260.993 785.181 267.235 781.993C273.126 801.299 280.094 819.225 289.528 837.091C284.881 838.926 280.344 840.814 275.859 843.029C261.912 850.191 248.034 859.136 235.209 868.176C255.109 860.591 273.37 849.637 293.845 843.464C296.941 847.259 299.777 851.325 302.706 855.252C287.231 867.598 266.603 874.515 247.719 879.889C210.067 890.603 191.115 881.059 158.811 863.009C112.425 837.09 97.0451 810.162 83.1036 760.672Q81.6344 755.484 80.2929 750.262Q78.9513 745.04 77.7383 739.786Q76.5252 734.532 75.4413 729.251Q74.3575 723.969 73.4034 718.662Q72.4494 713.355 71.6258 708.027Q70.8022 702.698 70.1095 697.351Q69.4168 692.004 68.8554 686.641Q68.294 681.279 67.8643 675.904Q67.4346 670.53 67.1369 665.146Q66.8391 659.762 66.6734 654.373Q66.5078 648.984 66.4743 643.592Q66.4409 638.2 66.5396 632.809Q66.6384 627.418 66.8693 622.032Q67.1003 616.645 67.4632 611.265Q67.8262 605.885 68.321 600.516Q68.8157 595.147 69.442 589.792C70.524 579.695 70.6777 566.084 75.8961 557.26C87.8213 537.097 170.815 514.099 194.467 507.582Z" transform="scale(1.33301 1.33301)" fill="white"/>
	<path d="M88.1898 558.862C89.5451 565.255 88.5613 574.765 88.5057 581.492C88.4169 592.228 88.4723 602.853 89.0756 613.578C91.8917 663.642 104.044 733.36 123.302 779.391C132.176 800.603 143.29 821.092 157.815 838.997C162.447 844.707 167.323 849.968 172.792 854.883C175.132 856.987 180.209 860.517 181.238 863.228L180.614 863.021C158.997 849.357 143.901 828.161 131.868 806.056C100.081 747.663 85.9424 664.51 85.6201 598.609C85.5597 586.259 84.6521 570.798 88.1898 558.862Z" transform="scale(1.33301 1.33301)" fill="#3E405B"/>
	<path d="M93.2183 561.912C101.602 564.027 125.518 592.992 131.413 600.458C183.991 667.056 225.834 789.239 215.807 874.415L215.327 874.748C213.432 868.201 213.396 847.322 212.801 838.961C211.904 826.347 210.142 813.761 208.146 801.279C194.401 715.306 155.538 623.838 93.2183 561.912Z" transform="scale(1.33301 1.33301)" fill="#3E405B"/>
	<path d="M637.341 47.2389C645.177 48.4291 653.044 49.5494 660.777 51.3166C703.918 62.2751 739.5 73.9145 774.162 103.117C778.437 106.618 786.182 112.33 788.868 116.941Q792.583 121.109 796.163 125.393C795.271 138.76 795.438 152.156 795.453 165.544L795.592 215.981L796.046 311.119C796.466 353.42 797.158 396.832 795.554 439.087L676.306 597.711L645.755 637.77C640.775 644.351 634.502 651.292 630.937 658.736C613.745 638.8 595.037 620.619 576.076 602.4C582.18 601.228 588.117 599.023 593.895 596.766C639.585 578.921 687.442 548.375 707.667 501.653C724.47 462.838 721.131 429.472 706.078 391.176C712.936 378.853 715.036 365.362 714.316 351.374C713.047 326.727 704.962 301.79 689.259 282.493C683.057 274.871 675.889 268.312 668.614 261.755C665.73 259.844 662.306 257.769 660.134 255.049C659.971 254.845 659.82 254.632 659.661 254.426C657.453 251.57 656.328 247.862 655.042 244.511C650.171 235.699 646.189 226.366 641.321 217.522C625.697 189.137 606.584 164.671 582.693 142.796C577.546 138.498 572.22 134.48 566.846 130.471C572.563 121.243 580.836 112.802 587.988 104.642Q605.313 85.1803 622.306 65.4276C627.357 59.5764 633.65 54.0821 637.341 47.2389Z" transform="scale(1.33301 1.33301)" fill="white"/>
	<path d="M774.162 103.117C778.437 106.618 786.182 112.33 788.868 116.941C765.607 146.726 741.405 175.569 717.182 204.569C701.146 223.768 685.553 243.329 668.614 261.755C665.73 259.844 662.306 257.769 660.134 255.049C659.971 254.845 659.82 254.632 659.661 254.426C657.453 251.57 656.328 247.862 655.042 244.511C663.843 234.878 672.077 224.738 680.555 214.823Q713.733 175.841 746.312 136.357C755.54 125.267 764.574 113.893 774.162 103.117Z" transform="scale(1.33301 1.33301)" fill="white"/>
	<path d="M637.341 47.2389C645.177 48.4291 653.044 49.5494 660.777 51.3166C703.918 62.2751 739.5 73.9145 774.162 103.117C764.574 113.893 755.54 125.267 746.312 136.357Q713.733 175.841 680.555 214.823C672.077 224.738 663.843 234.878 655.042 244.511C650.171 235.699 646.189 226.366 641.321 217.522C625.697 189.137 606.584 164.671 582.693 142.796C577.546 138.498 572.22 134.48 566.846 130.471C572.563 121.243 580.836 112.802 587.988 104.642Q605.313 85.1803 622.306 65.4276C627.357 59.5764 633.65 54.0821 637.341 47.2389Z" transform="scale(1.33301 1.33301)" fill="white"/>
	<path d="M637.341 47.2389C645.177 48.4291 653.044 49.5494 660.777 51.3166Q638.293 78.1742 615.12 104.44C604.072 117.032 592.533 129.212 582.693 142.796C577.546 138.498 572.22 134.48 566.846 130.471C572.563 121.243 580.836 112.802 587.988 104.642Q605.313 85.1803 622.306 65.4276C627.357 59.5764 633.65 54.0821 637.341 47.2389Z" transform="scale(1.33301 1.33301)" fill="white"/>
	<path d="M84.1579 540.288C79.9824 533.969 76.4843 526.794 73.2391 519.956C51.6552 474.477 43.4941 419.341 50.063 369.484C60.7645 288.261 111.857 218.156 175.761 169.173C295.961 77.0385 487.041 27.2033 637.341 47.2389C633.65 54.0821 627.357 59.5764 622.306 65.4276Q605.313 85.1803 587.988 104.642C580.836 112.802 572.563 121.243 566.846 130.471C554.231 122.926 541.744 115.574 528.012 110.219C488.067 94.6418 438.51 93.2616 397.126 103.667C352.37 114.92 309.837 142.638 279.835 177.561C268.768 190.445 259.276 204.733 250.58 219.295C244.407 229.632 239.081 240.386 233.962 251.275C213.876 255.679 196.556 265.615 185.184 283.196C175.648 297.938 171.88 315.867 175.74 333.091C178.009 343.213 182.871 352.467 190.523 359.535C170.598 384.253 159.529 411.747 162.964 443.911C165.337 466.125 174.539 484.154 188.431 501.377C154.069 509.818 113.643 520.011 84.1579 540.288Z" transform="scale(1.33301 1.33301)" fill="white"/>
	<path d="M409.623 237.304C417.334 231.029 422.828 223.11 429.55 215.895C446.228 197.995 466.536 185.469 489.387 177.036C482.652 190.382 477.126 203.825 472.098 217.9C501.033 202.852 533.86 205.785 565.181 209.146C551.107 222.2 539.233 237.722 521.645 246.317C537.361 247.11 551.504 251.69 562.329 263.544C568.837 270.671 574.525 280.168 577.071 289.517C560.509 284.143 544.723 280.998 527.216 281.555C532.804 284.044 539.647 285.071 545.605 286.488C559.21 289.723 572.415 293.274 584.934 299.725C581.085 281.421 575.972 263.271 559.305 252.473C551.694 247.542 543.527 245.65 534.812 243.615C538.37 241.46 541.903 239.128 545.57 237.17C585.468 248.563 622.898 275.242 649.604 306.762C662.756 322.285 674.202 340.014 684.056 357.782C703.956 393.664 719.822 439.331 708.084 480.249C696.524 520.545 664.917 552.006 628.953 571.761C577.764 599.879 499.434 618.7 441.097 615.556C436.073 612.104 399.192 605.848 390.591 603.633Q371.232 598.738 352.713 591.271C328.253 581.248 283.31 556.739 272.962 532.059C283.016 529.62 292.291 527.291 301.447 522.29C341.415 543.17 403.528 566.358 448.151 573.257C449.455 578.036 450.456 582.78 455.032 585.482C467.68 592.952 508.343 598.629 522.563 594.973C526.285 594.016 528.829 592.175 530.773 588.844C533.397 584.345 534.829 577.089 533.269 571.987C532.097 568.151 529.273 565.572 525.755 563.837C514.311 558.19 470.968 549.698 458.542 552.427C456.299 554.357 454.541 556.225 452.804 558.642C441.784 555.174 430.625 552.223 419.591 548.82C384.617 538.031 349.515 526.042 316.584 509.97C321.809 502.956 327.191 495.917 331.085 488.047C341.474 467.054 342.73 439.936 339.407 417.002C335.502 390.045 323.754 366.72 304.368 347.57C317.133 333.543 324.403 316.003 323.468 296.886C322.866 284.578 318.898 273.847 313.271 263.022C344.031 244.372 378.711 234.604 413.52 226.753C412.139 230.233 410.666 233.705 409.623 237.304Z" transform="scale(1.33301 1.33301)" fill="#FEFEFE"/>
	<path d="M631.964 444.2C636.351 443.589 642.701 443.396 646.527 445.875C648.866 447.391 650.161 449.765 650.74 452.446C653.551 465.452 644.214 478.479 637.405 488.609C637.597 493.795 637.514 498.028 635.699 502.956C636.699 503.852 637.706 504.774 638.815 505.534C640.758 506.866 642.946 507.572 645.298 507.039C650.568 505.844 654.04 498.111 656.591 493.785C655.768 497.372 655.045 501.243 653.42 504.572C651.409 508.69 648.791 510.34 644.576 511.782C640.696 511.037 636.916 509.484 633.195 508.168C630.719 511.726 627.936 514.454 624.339 516.85C616.354 522.171 605.744 525.446 596.174 523.327C589.054 521.752 584.265 517.632 580.548 511.563C579.122 507.907 578.228 504.125 578.759 500.165C578.927 498.908 579.215 498.316 580.175 497.525C580.614 497.576 581.096 497.483 581.492 497.678C582.043 497.949 583.934 509.138 587.506 513.274C590.756 517.037 595.504 518.873 600.38 519.236C608.852 519.868 618.24 516.559 624.688 511.079C630.779 505.902 632.994 499.09 633.678 491.394C620.992 490.452 607.708 488.235 597.319 480.278C593.758 477.55 590.538 473.818 590.029 469.196C589.643 465.688 590.987 462.411 593.179 459.722C601.34 449.712 619.832 445.496 631.964 444.2Z" transform="scale(1.33301 1.33301)" fill="#3E405B"/>
	<path d="M635.286 448.667C636.922 448.626 637.963 448.687 639.474 449.342C639.976 450.046 640.34 450.25 640.295 451.172C640.202 453.089 638.909 454.583 637.559 455.835C634.728 458.461 632.336 458.569 628.666 458.467C626.35 458.04 624.347 457.64 622.496 456.108C621.967 454.86 622.031 454.913 622.488 453.624C625.983 450.2 630.625 449.296 635.286 448.667Z" transform="scale(1.33301 1.33301)" fill="#FEFEFE"/>
	<path d="M622.537 316.582C627.969 316.034 632.722 316.707 637.71 318.947C663.583 330.566 685.987 368.898 695.788 395.045C701.07 409.136 706.666 427.556 699.774 442.055C696.395 449.164 691.299 452.65 684.155 455.278C675.159 456.588 665.484 453.147 657.644 448.987C632.539 435.664 617.681 410.47 609.739 383.955C604.849 367.627 599.162 342.978 607.995 327.227C611.394 321.164 616 318.295 622.537 316.582Z" transform="scale(1.33301 1.33301)" fill="#3E405B"/>
	<path d="M626.067 352.7C629.336 352.47 631.843 352.847 634.839 354.221C643.36 358.129 652.018 367.138 655.337 375.927C655.858 377.305 656.453 378.201 655.822 379.568C650.987 371.754 641.108 359.941 632.81 355.817C630.439 354.639 627.711 354.24 625.249 353.25L626.067 352.7Z" transform="scale(1.33301 1.33301)" fill="#9B8CC4"/>
	<path d="M641.18 369.863C644.476 370.163 647.028 372.307 649.09 374.737C657.329 384.448 663.868 407.471 662.71 420.043C662.28 424.709 661.124 427.654 657.528 430.697C656.372 430.987 655.209 431.19 654.021 430.958C650.648 430.301 648.069 427.27 646.309 424.535C638.845 412.943 633.464 389.017 636.867 375.408C637.614 372.418 638.572 371.44 641.18 369.863Z" transform="scale(1.33301 1.33301)" fill="white"/>
	<path d="M500.274 338.179Q501.521 338.032 502.774 337.951C516.617 337.072 530.131 340.949 540.6 350.188C557.967 365.515 570.148 400.277 571.421 422.96C573.149 453.731 560.433 484.747 539.89 507.342C520.039 529.177 494 544.249 464.125 545.605C448.047 546.334 430.934 542.208 417.923 532.43C403.117 521.304 394.603 502.829 392.177 484.798C387.478 449.866 403.281 414.467 424.188 387.258C443.626 361.96 467.775 342.469 500.274 338.179Z" transform="scale(1.33301 1.33301)" fill="#3E405B"/>
	<path d="M518.756 390.631C520.455 390.45 522.291 390.351 523.985 390.605C525.236 390.793 525.842 390.983 526.571 392.054C524.508 395.661 496.538 403.256 490.878 405.627C488.359 406.927 485.765 407.801 483.085 408.7C492.4 399.399 505.867 392.924 518.756 390.631Z" transform="scale(1.33301 1.33301)" fill="#9B8CC4"/>
	<path d="M516.08 403.052C519.203 404.434 522.05 409.44 523.62 412.45C530.659 425.95 535.329 451.48 530.302 466.134C529.503 468.465 528.035 470.946 525.654 471.928C523.203 472.939 521.088 472.17 518.747 471.261C511.678 466.833 507.992 459.329 505.522 451.601C502.679 442.705 497.907 418.41 502.587 410.098C505.128 405.584 511.495 404.451 516.08 403.052Z" transform="scale(1.33301 1.33301)" fill="white"/>
</svg>