<?xml version="1.0" encoding="utf-8" ?>
<svg xmlns="http://www.w3.org/2000/svg" xmlns:xlink="http://www.w3.org/1999/xlink" width="1356" height="1356">
	<path fill="white" transform="scale(1.32422 1.32422)" d="M0 0L1024 0L1024 1024L0 1024L0 0Z"/>
	<path fill="#E07A5F" transform="scale(1.32422 1.32422)" d="M795.993 125.248C806.336 138.248 813.684 148.343 821.77 162.979C823.377 165.887 825.592 169.254 826.724 172.338C845.972 213.053 858.579 256.142 867.082 300.298C869.819 314.511 871.465 328.953 874.283 343.131C875.146 352.33 878.3 364.269 877.998 373.057Q880.607 396.6 882.285 420.228Q883.963 443.855 884.707 467.531Q885.451 491.206 885.261 514.892Q885.07 538.579 883.945 562.239C903.875 564.056 922.284 571.985 935.36 587.599C954.23 610.13 958.315 638.983 955.551 667.417C954.709 676.081 952.579 684.706 950.269 693.088C942.338 721.866 929.863 743.735 912.029 767.391C939.438 779.074 976.557 799.888 988.009 828.663C993.154 841.589 992.123 856.599 986.659 869.251C971.261 904.911 928.452 926.24 894.052 939.702C862.029 952.233 828.701 959.522 795.048 966.098C638.849 996.622 471.137 995.572 313.871 973.407C250.8 964.518 181.502 951.205 122.98 925.487C92.5452 912.112 50.6249 888.879 37.9846 856.429C35.5774 850.249 34.4904 844.001 34.1925 837.399L34.5032 835.099C34.4187 832.212 35.1994 828.935 35.625 826.054C37.0167 821.17 38.9916 816.923 41.4907 812.507C43.3721 809.267 45.5428 806.149 47.5768 803C55.1178 793.067 69.403 781.71 80.4226 776.121C83.2948 785.08 86.5886 794.125 90.5179 802.678L93.1718 808.447C102.287 825.566 106.599 832.543 120.996 846.358C124.79 849.892 128.717 853.328 132.941 856.347C140.206 861.3 147.776 865.7 155.097 870.542L158.185 872.195C166.55 876.367 175.22 879.415 183.695 883.245L195.08 887.755C199.248 889.001 203.404 890.243 207.658 891.168C210.699 891.83 214.067 892.137 217.012 893.087L229.87 891.475C236.13 889.328 243.116 888.575 249.523 886.777C270.635 880.851 290.227 872.503 308.676 860.622C316.374 870.761 327.115 878.78 337.504 885.967L343.953 889.952C350.307 893.562 356.626 897.144 363.344 900.05C367.856 902.001 373.474 903.423 377.63 905.934Q382.057 907.242 386.388 908.839C395.826 911.617 405.488 914.615 414.679 918.119L423.619 920.326C429.598 921.052 435.604 922.539 441.412 924.11L451.008 926.05C459.01 927.264 467.699 928.103 475.542 929.985Q483.324 930.166 491.102 930.478C498.043 930.358 504.876 930.044 511.783 929.285C516.349 932.003 520.274 931.988 525.287 932.932C527.861 932.144 530.466 930.96 532.714 929.474C549.93 918.099 555.48 892.016 559.596 873.279C580.942 882.047 609.141 883.504 631.992 882.628C639.233 882.351 647.486 882.151 654.27 879.388Q655.213 879.223 656.145 879.003C670.425 875.577 687.982 849.095 695.602 836.646C703.717 823.388 723.107 785.733 718.955 770.7C717.083 763.923 707.476 756.118 701.616 752.696C688.851 745.243 676.469 748.398 663.057 751.91C669.678 723.69 658.655 700.502 644.575 676.706C640.071 670.629 635.623 664.496 630.861 658.617C633.761 652.59 639.209 646.55 643.213 641.158C654.343 626.164 665.841 611.451 677.086 596.543L795.555 438.999C797.149 362.632 795.508 286.094 795.569 209.705C795.592 181.656 794.729 153.261 795.993 125.248Z"/>
	<path fill="#9E512A" transform="scale(1.32422 1.32422)" d="M94.2542 850.704C101.809 850.169 109.922 851.58 117.47 852.359C99.6732 855.571 81.9425 856.397 63.8921 857.03Q51.888 857.91 39.8741 857.175C57.9547 854.406 75.9795 851.824 94.2542 850.704Z"/>
	<path fill="#9E512A" transform="scale(1.32422 1.32422)" d="M423.619 920.326C429.598 921.052 435.604 922.539 441.412 924.11C425.263 931.273 406.465 932.478 389.208 934.958C400.855 930.802 412.348 925.415 423.619 920.326Z"/>
	<path fill="#9E512A" transform="scale(1.32422 1.32422)" d="M195.08 887.755C199.248 889.001 203.404 890.243 207.658 891.168C210.699 891.83 214.067 892.137 217.012 893.087C197.586 896.793 177.093 898.577 157.347 899.804C158.622 898.838 191.193 889.024 195.08 887.755Z"/>
	<path fill="#9E512A" transform="scale(1.32422 1.32422)" d="M451.008 926.05C459.01 927.264 467.699 928.103 475.542 929.985C472.59 931.851 468.483 932.724 465.131 933.622C448.716 938.018 432.577 939.77 415.615 938.747C427.366 934.16 439.811 932.315 451.008 926.05Z"/>
	<path fill="#9E512A" transform="scale(1.32422 1.32422)" d="M158.185 872.195C166.55 876.367 175.22 879.415 183.695 883.245C175.155 886.932 125.132 888.062 113.142 888.698C128.105 883.543 144.005 879.372 158.185 872.195Z"/>
	<path fill="#9E512A" transform="scale(1.32422 1.32422)" d="M511.783 929.285C516.349 932.003 520.274 931.988 525.287 932.932C506.906 946.488 470.562 944.514 448.46 941.695C462.555 939.551 478.461 937.353 491.102 930.478C498.043 930.358 504.876 930.044 511.783 929.285Z"/>
	<path fill="#9E512A" transform="scale(1.32422 1.32422)" d="M386.388 908.839C395.826 911.617 405.488 914.615 414.679 918.119C406.982 922.525 382.003 928.367 373.178 928.32C365.505 928.279 357.286 926.053 349.732 924.634C361.68 918.822 374.722 915.401 386.388 908.839Z"/>
	<path fill="#9E512A" transform="scale(1.32422 1.32422)" d="M132.941 856.347C140.206 861.3 147.776 865.7 155.097 870.542C146.307 871.218 137.402 871.063 128.589 871.108C115.431 871.173 102.174 871.322 89.0261 870.768C76.9944 870.262 65.0275 869.144 53.0125 868.535C64.4856 866.76 76.0232 865.379 87.4728 863.451C102.686 860.889 117.564 857.899 132.941 856.347Z"/>
	<path fill="#9E512A" transform="scale(1.32422 1.32422)" d="M343.953 889.952C350.307 893.562 356.626 897.144 363.344 900.05C367.856 902.001 373.474 903.423 377.63 905.934C361.469 911.676 344.536 915.845 327.703 919.049C323.774 919.798 319.791 920.866 315.816 921.239C323.974 918.001 332.728 915.04 340.29 910.545C317.108 915.063 295.483 918.095 271.765 916.924C295.676 907.493 319.868 898.914 343.953 889.952Z"/>
	<path fill="#9E512A" transform="scale(1.32422 1.32422)" d="M308.676 860.622C316.374 870.761 327.115 878.78 337.504 885.967C313.408 893.575 288.002 899.906 263.203 904.637C256.141 905.984 248.992 906.646 241.935 907.918C262.217 899.808 283.305 891.616 302.377 880.906C285.118 883.082 268.091 887.024 250.847 889.529C243.856 890.545 236.96 891.83 229.87 891.475C236.13 889.328 243.116 888.575 249.523 886.777C270.635 880.851 290.227 872.503 308.676 860.622Z"/>
	<path fill="#9E512A" transform="scale(1.32422 1.32422)" d="M662.224 911.238C680.585 903.936 699.896 898.722 718.675 892.581C718.36 900.786 717.798 909.101 717.965 917.311C726.619 921.757 736.981 924.344 746.2 927.43L786.253 940.982C796.283 944.389 806.489 947.62 816.26 951.718C816.324 952.664 816.213 953.272 815.927 954.175C809.605 956.979 677.591 916.257 662.224 911.238Z"/>
	<path fill="#9E512A" transform="scale(1.32422 1.32422)" d="M80.4226 776.121C83.2948 785.08 86.5886 794.125 90.5179 802.678L93.1718 808.447C102.287 825.566 106.599 832.543 120.996 846.358C108.326 848.82 71.2685 844.666 57.3575 842.239C51.8784 841.284 38.7824 836.46 34.1925 837.399L34.5032 835.099C34.4187 832.212 35.1994 828.935 35.625 826.054C37.0167 821.17 38.9916 816.923 41.4907 812.507C43.3721 809.267 45.5428 806.149 47.5768 803C55.1178 793.067 69.403 781.71 80.4226 776.121Z"/>
	<path fill="#E07A5F" transform="scale(1.32422 1.32422)" d="M35.625 826.054L75.223 825.79C84.7108 825.715 94.3287 825.335 103.782 826.297C87.8425 828.697 71.9851 830.247 55.9981 832.126C48.8821 832.962 41.624 834.631 34.5032 835.099C34.4187 832.212 35.1994 828.935 35.625 826.054Z"/>
	<path fill="#E07A5F" transform="scale(1.32422 1.32422)" d="M90.5179 802.678L93.1718 808.447C76.4694 810.496 58.2354 813.026 41.4907 812.507C43.3721 809.267 45.5428 806.149 47.5768 803C52.0681 803.53 56.7709 803.254 61.2922 803.231C71.0435 803.182 80.7722 802.828 90.5179 802.678Z"/>
	<path fill="#9E512A" transform="scale(1.32422 1.32422)" d="M80.4226 776.121C83.2948 785.08 86.5886 794.125 90.5179 802.678C80.7722 802.828 71.0435 803.182 61.2922 803.231C56.7709 803.254 52.0681 803.53 47.5768 803C55.1178 793.067 69.403 781.71 80.4226 776.121Z"/>
	<path fill="#3D405B" transform="scale(1.32422 1.32422)" d="M845.789 876.031C852.607 874.266 870.307 869.051 875.625 865.454C878.006 863.844 879.981 861.515 881.405 859.035C894.021 837.05 875.836 794.203 874.3 769.773C873.436 756.036 876.258 743.639 879.624 730.439C881.921 721.433 884.167 711.682 890.169 704.337C889.223 725.069 880.276 744.772 880.523 765.759C880.646 776.187 883.037 786.311 885.447 796.395C889.745 814.383 892.821 831.003 890.417 849.599C901.049 852.231 929.082 857.782 936.952 862.811C936.827 877.282 936.875 891.898 936.367 906.355C926.81 913.212 908.927 919.017 897.614 923.794C880.424 931.052 863.245 938.12 845.878 944.955C837.897 948.096 829.785 951.996 821.476 954.12L816.26 951.718C806.489 947.62 796.283 944.389 786.253 940.982L746.2 927.43C736.981 924.344 726.619 921.757 717.965 917.311C717.798 909.101 718.36 900.786 718.675 892.581C719.171 887.705 718.276 882.475 719.246 877.683C719.489 876.479 719.819 875.898 720.942 875.243C729.394 870.32 822.46 838.075 831.796 837.566C840.432 837.095 864.67 844.66 874.651 847.434C878.836 822.401 865.434 798.813 863.479 774.212C861.998 755.569 867.331 723.702 879.636 709.18C872.969 728.983 867.81 750.357 869.418 771.39C871.191 794.569 881.232 815.185 881.215 838.861C881.212 843.177 881.128 847.585 880.038 851.788C878.807 856.538 876.438 860.251 872.125 862.7C863.189 867.773 847.05 872.293 836.94 869.4C835.527 868.588 835.599 868.103 835.053 866.611C831.4 867.921 827.685 869.161 824.1 870.644C831.353 872.285 838.704 873.763 845.789 876.031Z"/>
	<path fill="#5F5F5F" transform="scale(1.32422 1.32422)" d="M852.734 860.217C856.643 860.875 860.471 861.648 864.319 862.599C857.629 864.312 841.859 866.612 836.94 869.4C835.527 868.588 835.599 868.103 835.053 866.611C841.034 864.687 846.961 862.713 852.734 860.217Z"/>
	<path fill="#9B8CC4" transform="scale(1.32422 1.32422)" d="M724.693 882.087C757.153 892.72 790.27 902.096 822.287 913.953C822.11 924.886 821.535 935.806 821.581 946.744C806.538 940.511 790.558 935.705 775.155 930.379C758.372 924.577 741.365 917.932 724.138 913.632C725.173 903.191 724.58 892.565 724.693 882.087Z"/>
	<path fill="#9B8CC4" transform="scale(1.32422 1.32422)" d="M929.84 870.004L930.075 870.212C931.121 873.024 929.963 898.289 929.905 903.516C918.258 909.61 905.266 914.133 893.148 919.274Q873.031 927.818 852.68 935.788C843.302 939.545 833.834 943.749 824.107 946.519L823.414 945.744C822.987 940.613 822.914 917.579 824.603 913.752C825.406 911.932 827.012 911.542 828.733 910.8C842.795 904.741 857.682 899.804 872.026 894.388Q901.391 883.281 929.84 870.004Z"/>
	<path fill="#9B8CC4" transform="scale(1.32422 1.32422)" d="M832.78 842.47C836.691 842.869 841.208 844.593 845.051 845.591C854.341 848.003 863.779 850.185 872.918 853.122C871.229 855.296 869.431 856.953 867.143 858.479C862.084 857.036 856.373 854.676 851.114 856.165C846.013 857.609 817.213 867.529 815.44 870.742L816.35 872.497C815.794 873.471 816.008 873.149 815.43 873.98L815.053 874.512C816.011 875.636 839.627 881.131 842.423 881.663C844.868 882.129 847.255 882.365 849.72 881.876C857.718 880.289 885.311 869.824 891.812 865.375L891.562 864.729C890.476 864.483 889.407 864.205 888.334 863.904C887.817 861.518 889.077 857.987 889.592 855.584C902.507 858.652 915.223 862.575 928.189 865.389C915.856 871.302 903.054 876.445 890.626 882.218C879.296 886.889 867.736 890.942 856.366 895.496C845.546 899.829 834.887 904.763 823.804 908.386C803.974 900.231 783 894.602 762.592 888.108C751.672 884.633 740.645 879.962 729.481 877.48C750.81 870.512 771.985 862.926 793.257 855.762C806.364 851.347 819.969 847.653 832.78 842.47Z"/>
	<path fill="#A0E4CB" transform="scale(1.32422 1.32422)" d="M795.993 125.248C806.336 138.248 813.684 148.343 821.77 162.979C823.377 165.887 825.592 169.254 826.724 172.338C845.972 213.053 858.579 256.142 867.082 300.298C869.819 314.511 871.465 328.953 874.283 343.131C875.146 352.33 878.3 364.269 877.998 373.057C868.78 385.65 858.478 397.58 848.698 409.75C841.231 419.042 834.046 429.415 825.526 437.742C827.013 445.31 826.043 456.465 826.056 464.381L826.118 523.123L826.126 741.881C816.422 739.042 806.173 736.794 796.138 735.531C796.773 707.056 796.439 678.513 796.443 650.03L796.005 477.033Q744.654 541.687 695.486 608.016L660.395 655.34C655.281 662.265 650.527 670.576 644.575 676.706C640.071 670.629 635.623 664.496 630.861 658.617C633.761 652.59 639.209 646.55 643.213 641.158C654.343 626.164 665.841 611.451 677.086 596.543L795.555 438.999C797.149 362.632 795.508 286.094 795.569 209.705C795.592 181.656 794.729 153.261 795.993 125.248Z"/>
	<path fill="#E07A5F" transform="scale(1.32422 1.32422)" d="M826.422 400.423L826.313 240.2L826.328 194.117C826.346 187.092 825.674 179.266 826.724 172.338C845.972 213.053 858.579 256.142 867.082 300.298C869.819 314.511 871.465 328.953 874.283 343.131C857.352 361.35 843.757 382.622 826.422 400.423Z"/>
	<path fill="#3D405B" transform="scale(1.32422 1.32422)" d="M84.5626 539.951C57.4655 498.253 45.6893 437.478 48.5734 388.1C53.3541 306.252 96.3076 238.904 156.423 185.555C250.294 102.252 405.878 51.8317 529.426 44.2697Q563.255 42.1083 597.114 43.7265C610.127 44.4664 623.051 46.2383 636.044 47.0202C644.12 48.9037 652.397 49.9525 660.515 51.667C703.533 61.1589 739.721 75.0308 773.935 103.164C778.665 107.474 784.791 112.16 788.663 117.179C791.01 119.671 794.178 122.389 795.993 125.248C794.729 153.261 795.592 181.656 795.569 209.705C795.508 286.094 797.149 362.632 795.555 438.999L677.086 596.543C665.841 611.451 654.343 626.164 643.213 641.158C639.209 646.55 633.761 652.59 630.861 658.617C635.623 664.496 640.071 670.629 644.575 676.706C658.655 700.502 669.678 723.69 663.057 751.91C676.469 748.398 688.851 745.243 701.616 752.696C707.476 756.118 717.083 763.923 718.955 770.7C723.107 785.733 703.717 823.388 695.602 836.646C687.982 849.095 670.425 875.577 656.145 879.003Q655.213 879.223 654.27 879.388C647.486 882.151 639.233 882.351 631.992 882.628C609.141 883.504 580.942 882.047 559.596 873.279C555.48 892.016 549.93 918.099 532.714 929.474C530.466 930.96 527.861 932.144 525.287 932.932C520.274 931.988 516.349 932.003 511.783 929.285C504.876 930.044 498.043 930.358 491.102 930.478Q483.324 930.166 475.542 929.985C467.699 928.103 459.01 927.264 451.008 926.05L441.412 924.11C435.604 922.539 429.598 921.052 423.619 920.326L414.679 918.119C405.488 914.615 395.826 911.617 386.388 908.839Q382.057 907.242 377.63 905.934C373.474 903.423 367.856 902.001 363.344 900.05C356.626 897.144 350.307 893.562 343.953 889.952L337.504 885.967C327.115 878.78 316.374 870.761 308.676 860.622C290.227 872.503 270.635 880.851 249.523 886.777C243.116 888.575 236.13 889.328 229.87 891.475L217.012 893.087C214.067 892.137 210.699 891.83 207.658 891.168C203.404 890.243 199.248 889.001 195.08 887.755L183.695 883.245C175.22 879.415 166.55 876.367 158.185 872.195L155.097 870.542C147.776 865.7 140.206 861.3 132.941 856.347C128.717 853.328 124.79 849.892 120.996 846.358C106.599 832.543 102.287 825.566 93.1718 808.447L90.5179 802.678C86.5886 794.125 83.2948 785.08 80.4226 776.121C59.9736 711.347 53.0241 639.274 65.057 572.164C68.2292 554.472 69.9153 550.125 84.5626 539.951Z"/>
	<path fill="#FFC4BC" transform="scale(1.32422 1.32422)" d="M544.643 756.271C544.784 756.29 544.927 756.302 545.067 756.328C548.837 757.035 555.523 761.478 557.623 764.769L557.13 766.285C553.378 764.61 546.237 760.919 543.863 757.549L544.643 756.271Z"/>
	<path fill="#C9BAD2" transform="scale(1.32422 1.32422)" d="M286.497 515.48L293.53 518.654C287.738 521.104 281.631 523.158 275.423 524.242C278.483 520.805 283.196 518.916 286.497 515.48Z"/>
	<path fill="#E07A5F" transform="scale(1.32422 1.32422)" d="M638.891 741.139C638.986 741.35 639.122 741.548 639.176 741.773C639.43 742.838 639.125 743.29 638.589 744.129C637.967 744.3 637.245 744.539 636.593 744.597C634.55 744.782 632.109 743.239 630.67 741.874C629.603 740.861 629.31 740.044 629.27 738.605C629.563 737.998 629.845 737.518 630.417 737.12C632.429 735.722 638.225 734.001 640.679 734.261L641.8 735.682C642.777 737.674 643.902 739.682 644.567 741.802L642.718 741.958C641.074 741.181 640.823 740.484 639.837 738.994C639.385 737.971 639.042 737.557 638.149 736.886C636.559 736.757 635.233 737.135 633.996 738.164C632.934 739.047 632.371 740.069 631.763 741.284L631.831 742.45C633.854 742.982 636.861 741.792 638.891 741.139Z"/>
	<path fill="#0C0D1D" transform="scale(1.32422 1.32422)" d="M537.99 812.82C540.775 819.946 542.768 828.935 546.185 835.461C547.405 833.64 548.783 831.818 549.712 829.831L550.59 831.912C549.532 833.967 548.268 837.256 545.993 838.189C545.25 838.494 545.406 838.346 544.595 837.956C541.11 832.633 538.472 820.631 537.469 814.216L537.99 812.82Z"/>
	<path fill="#252525" transform="scale(1.32422 1.32422)" d="M540.506 760.104Q547.929 764.258 555.219 768.642L554.33 769.095L555.274 769.34L555.575 768.911L555.515 769.488L555.815 769.173C555.638 770.068 554.074 771.308 553.409 772.006L552.33 772.634C547.929 770.741 543.594 766.81 539.745 763.932C539.265 762.487 539.992 761.498 540.506 760.104Z"/>
	<defs>
		<linearGradient id="gradient_0" gradientUnits="userSpaceOnUse" x1="568.86072" y1="642.41467" x2="594.50177" y2="630.69098">
			<stop offset="0" stop-color="#AB89D2"/>
			<stop offset="1" stop-color="#BEA6D2"/>
		</linearGradient>
	</defs>
	<path fill="url(#gradient_0)" transform="scale(1.32422 1.32422)" d="M591.722 625.624C593.116 626.57 594 627.679 595.041 628.993C587.542 635.521 579.841 641.982 571.993 648.085C571.499 648.395 570.942 648.26 570.367 648.259C570.075 647.569 569.733 647.153 569.888 646.382C570.778 641.97 587.499 629.034 591.722 625.624Z"/>
	<path fill="#FFC4BC" transform="scale(1.32422 1.32422)" d="M184.236 301.504L184.228 302.49C184.177 305.707 183.631 308.922 183.558 312.168C183.191 328.431 187.018 339.763 196.445 352.892C195.296 353.841 195.084 354.209 193.561 354.335C190.917 352.645 188.172 348.024 186.634 345.23C179.274 331.861 180.041 315.701 184.236 301.504Z"/>
	<path fill="#E07A5F" transform="scale(1.32422 1.32422)" d="M617.851 755.483C619.677 755.414 621.373 755.401 623.127 755.984C627.494 757.434 631.58 760.499 635.625 762.701C639.018 764.547 642.669 765.884 646.27 767.256C639.939 770.336 633.156 772.281 626.83 775.526C626.748 773.642 626.675 771.741 626.389 769.875C625.429 763.596 623.002 759.215 617.851 755.483Z"/>
	<path fill="white" transform="scale(1.32422 1.32422)" d="M213.262 517.144C219.945 519.354 225.121 521.543 230.851 525.711L231.039 526.184C232.874 530.707 239.598 540.741 238.209 545.687C237.956 546.586 237.403 547.274 236.817 547.968C227.915 538.985 218.977 528.43 213.262 517.144Z"/>
	<path fill="#E07A5F" transform="scale(1.32422 1.32422)" d="M565.631 772.708C566.871 777.753 568.038 782.829 569.525 787.808L569.329 788.239C565.668 791.194 551.739 794.458 546.439 796.061C546.239 795.628 546.062 795.227 545.821 794.806C542.93 789.752 541.09 784.325 538.793 778.97C541.036 780.198 543.233 781.356 545.612 782.314L551.056 783.747C558.089 781.694 561.387 778.383 565.631 772.708Z"/>
	<path fill="#9B8CC4" transform="scale(1.32422 1.32422)" d="M402.182 620.959C418.15 622.162 434.113 622.617 450.113 623.12C446.116 624.203 442.249 625.603 438.356 627C430.869 629.607 423.906 633.302 416.867 636.906C411.736 631.885 407.24 626.108 402.182 620.959Z"/>
	<path fill="#9E512A" transform="scale(1.32422 1.32422)" d="M619.886 762.251C621.45 765.07 623.764 770.379 622.788 773.609C622.526 774.478 622.297 774.719 621.463 775.14C618.69 776.538 608.091 775.802 604.044 776.564C594.733 778.316 582.62 783.119 573.589 786.645C572.743 786.976 573.078 786.891 572.123 786.843Q571.083 783.201 570.176 779.524C577.812 779.358 612.536 766.293 619.886 762.251Z"/>
	<path fill="#E07A5F" transform="scale(1.32422 1.32422)" d="M570.866 768.666C580.865 770.53 601.396 758.513 613.341 758.916C616.391 759.019 617.853 760.081 619.886 762.251C612.536 766.293 577.812 779.358 570.176 779.524Q568.776 776.286 567.442 773.02C566.97 772.112 566.393 771.24 565.865 770.363C567.548 769.838 569.205 769.258 570.866 768.666Z"/>
	<path fill="#E07A5F" transform="scale(1.32422 1.32422)" d="M549.343 177.521C556.279 184.669 562.86 193.745 567.066 202.828C554.85 200.993 542.2 200.104 529.853 199.966C536.058 192.633 544.537 185.813 549.343 177.521Z"/>
	<path fill="#9B8CC4" transform="scale(1.32422 1.32422)" d="M269.523 505.002C274.733 509.431 280.443 512.416 286.497 515.48C283.196 518.916 278.483 520.805 275.423 524.242C262.477 528.924 243.92 524.946 231.54 520.278C247.422 517.993 256.843 514.961 269.523 505.002Z"/>
	<path fill="#9B8CC4" transform="scale(1.32422 1.32422)" d="M549.326 611.126C556.444 608.379 564.499 605.926 571.924 604.198C573.148 604.837 573.397 605.793 574.053 606.972C578.732 612.667 583.947 617.738 589.244 622.848C581.161 628.316 574.086 635.053 567.271 642.008C561.594 632.489 556.349 620.294 548.214 612.703C548.055 612.555 547.901 612.402 547.743 612.253L547.458 611.985C548.276 611.316 548.351 611.286 549.326 611.126Z"/>
	<path fill="#9E512A" transform="scale(1.32422 1.32422)" d="M561.141 863.438C586.019 872.343 615.126 877.404 641.413 873.111C645.54 877.308 648.54 878.282 654.27 879.388C647.486 882.151 639.233 882.351 631.992 882.628C609.141 883.504 580.942 882.047 559.596 873.279C560.115 870.001 560.677 866.724 561.141 863.438Z"/>
	<path fill="#A0E4CB" transform="scale(1.32422 1.32422)" d="M534.014 162.644Q542.039 169.711 549.343 177.521C544.537 185.813 536.058 192.633 529.853 199.966C519.371 200.037 509.118 200.572 498.794 202.551C502.521 195.403 527.025 169.658 534.014 162.644Z"/>
	<defs>
		<linearGradient id="gradient_1" gradientUnits="userSpaceOnUse" x1="287.90863" y1="688.52625" x2="260.93643" y2="692.0885">
			<stop offset="0" stop-color="#B7D5B8"/>
			<stop offset="1" stop-color="#FFFCFC"/>
		</linearGradient>
	</defs>
	<path fill="url(#gradient_1)" transform="scale(1.32422 1.32422)" d="M279.171 796.586C273.954 777.152 269.161 757.758 266.405 737.796C261.203 700.116 263.579 661.541 267.458 623.848C268.169 616.936 270.439 592.767 272.658 587.077C273.094 585.96 273.186 585.809 274.228 585.345L276.17 586.481C274.182 601.594 271.815 616.426 270.62 631.662C269.582 644.887 269.498 658.222 269.471 671.482C269.4 706.25 271.73 739.805 280.428 773.596C281.925 779.413 283.268 785.493 285.31 791.144L279.171 796.586Z"/>
	<path fill="#9B8CC4" transform="scale(1.32422 1.32422)" d="M663.174 265.282C687.134 284.866 703.458 312.949 706.549 344.019C707.507 353.65 707.783 363.509 705.905 373.048C705.208 376.389 703.996 379.532 702.825 382.729C699.106 373.825 693.72 364.403 691.273 355.122C690.067 350.55 689.901 345.578 689.076 340.911C688.003 334.832 686.413 328.83 684.907 322.847C681.767 312.709 678.599 302.614 674.647 292.755C670.962 283.56 666.547 274.589 663.174 265.282Z"/>
	<path fill="#9B8CC4" transform="scale(1.32422 1.32422)" d="M375.764 710.169C394.397 690.153 411.421 675.828 437.824 666.777C440.989 669.796 443.976 672.863 446.841 676.169C428.505 683.447 413.805 693.885 399.505 707.296C395.335 711.207 391.009 715.242 387.459 719.725C380.911 728.286 375.747 736.879 370.875 746.446C366.621 742.577 362.702 738.356 358.723 734.208C363.95 725.738 369.395 717.829 375.764 710.169Z"/>
	<path fill="#9B8CC4" transform="scale(1.32422 1.32422)" d="M457.683 560.807C458.688 559.283 459.862 557.166 461.783 556.677C468.585 554.944 519.656 565.042 526.344 569.476C527.423 570.191 527.951 571.856 528.394 573.024C528.779 576.349 528.822 579.512 528.124 582.809C527.361 584.832 526.595 586.7 525.09 588.298C522.424 591.129 518.197 591.073 514.583 591.041C503.957 590.945 462.811 587.15 456.39 579.985C453.986 577.302 454.45 573.928 454.648 570.616C455.072 567.202 456.202 563.898 457.683 560.807Z"/>
	<path fill="white" transform="scale(1.32422 1.32422)" d="M609.898 778.742C610.626 778.883 611.382 778.772 611.786 779.468C613.716 782.797 610.305 791.947 609.089 795.353C600.328 819.885 582.75 839.903 561.537 854.52C562.269 834.985 562.664 815.843 550.357 799.459C557.767 796.844 565.129 794.199 572.387 791.184C584.777 786.095 596.989 782.304 609.898 778.742Z"/>
	<path fill="#9B8CC4" transform="scale(1.32422 1.32422)" d="M486.663 123.094C490.49 122.952 494.204 123.376 497.981 123.982C509.238 125.788 521.082 129.112 531.474 133.777C551.858 142.928 575.05 160.471 589.971 177.131C601.112 189.572 610.573 203.627 620.366 217.136C616.716 215.746 613.688 213.044 610.19 211.301C598.932 205.694 587.031 202.325 574.449 201.954Q572.481 198.776 570.4 195.67Q568.32 192.564 566.131 189.534Q563.942 186.503 561.647 183.553Q559.351 180.602 556.952 177.735Q554.554 174.868 552.054 172.088Q549.555 169.308 546.959 166.619Q544.362 163.93 541.672 161.334Q538.981 158.739 536.2 156.241Q533.419 153.742 530.551 151.345Q527.683 148.947 524.732 146.653Q521.781 144.358 518.75 142.17Q515.719 139.982 512.612 137.903Q509.505 135.825 506.326 133.857Q503.147 131.89 499.901 130.037Q496.654 128.184 493.344 126.448Q490.033 124.712 486.663 123.094Z"/>
	<path fill="white" transform="scale(1.32422 1.32422)" d="M543.804 689.205C556.523 687.503 573.167 689.276 585.714 691.731Q588.602 698.789 591.727 705.744L528.378 724.32Q520.985 726.736 513.555 729.038C502.931 722.784 491.76 712.215 483.12 703.352C500.945 694.677 524.186 690.903 543.804 689.205Z"/>
	<path fill="white" transform="scale(1.32422 1.32422)" d="M338.658 764.143C348.185 760.051 357.641 756.564 367.752 754.136C375.696 760.394 383.558 766.815 391.998 772.4C403.817 780.221 417.007 786.621 429.894 792.476C412.25 801.416 397.707 811.412 386.392 827.989C366.297 815.26 349.077 785.12 338.658 764.143Z"/>
	<path fill="#9B8CC4" transform="scale(1.32422 1.32422)" d="M705.443 764.092C709.661 768.696 713.027 772.869 712.609 779.503C711.084 803.645 681.615 852.728 663.213 868.459C660.627 870.67 656.853 873.585 653.265 873.289C650.697 873.077 648.507 871.323 646.971 869.362C642.7 863.908 643.086 855.817 644.042 849.313C646.646 831.601 654.334 811.81 663.541 796.533C665.147 793.867 667.297 791.682 668.957 789.117L670.543 788.433C671.08 789.886 672.043 791.232 672.852 792.556C678.555 786.951 682.723 780.203 686.181 773.045L689.047 767.262L689.218 767.704C690.878 772.093 692.686 782.802 696.861 785.353C697.506 785.747 698.174 785.94 698.89 785.681C701.07 784.894 702.519 781.703 703.312 779.706C705.231 774.875 705.536 769.241 705.443 764.092Z"/>
	<path fill="#3D405B" transform="scale(1.32422 1.32422)" d="M663.28 820.493C667.487 811.924 674.093 800.32 683.825 797.169C685.91 796.493 688.35 796.347 690.327 797.44C692.06 798.399 693.109 800.181 693.562 802.063C695.359 809.535 691.839 817.827 688.796 824.464C688.782 824.502 688.769 824.54 688.752 824.577C684.239 834.256 675 853.061 664.484 857.047C662.399 857.838 659.931 858.083 657.872 857.074C656.281 856.294 655.278 854.849 654.715 853.205C651.473 843.745 659.098 828.66 663.28 820.493Z"/>
	<path fill="#FFC4BC" transform="scale(1.32422 1.32422)" d="M230.851 525.711C244.598 531.724 258.097 533.811 273.034 532.099C276.725 547.109 308.495 568.104 321.777 576.136C343.929 589.531 369.229 598.587 394.31 604.678C400.936 606.287 438.593 613.662 441.75 615.58C440.835 615.704 439.923 615.795 439 615.82C419.55 616.339 400.072 613.948 380.904 610.958C337.24 604.147 290.926 591.383 255.105 564.353C248.565 559.419 242.637 553.718 236.817 547.968C237.403 547.274 237.956 546.586 238.209 545.687C239.598 540.741 232.874 530.707 231.039 526.184L230.851 525.711Z"/>
	<path fill="#9B8CC4" transform="scale(1.32422 1.32422)" d="M518.166 839.126C518.399 840.105 518.663 840.648 519.266 841.453C519.42 841.447 519.577 841.464 519.729 841.435C524.046 840.596 532.81 824.251 534.551 820.001C535.349 818.052 535.413 814.973 536.692 813.416L537.469 814.216C538.472 820.631 541.11 832.633 544.595 837.956C545.406 838.346 545.25 838.494 545.993 838.189C548.268 837.256 549.532 833.967 550.59 831.912C552.435 827.729 553.331 823.3 554.591 818.928C558.373 845.119 552.657 895.019 536.976 915.901C534.131 919.69 529.644 924.861 524.756 925.601C521.659 926.07 518.605 925.097 516.117 923.25C507.837 917.105 504.11 901.963 502.954 892.311C502.357 887.322 502.441 882.238 502.409 877.219C502.706 856.054 508.037 852.661 516.882 835.609C517.338 836.763 517.876 837.919 518.166 839.126Z"/>
	<path fill="#3D405B" transform="scale(1.32422 1.32422)" d="M538.992 902.014C537.67 904.153 536.226 906.165 534.461 907.963C532.342 910.121 529.667 911.686 526.566 911.578C523.977 911.488 521.657 910.352 519.944 908.417C514.788 902.592 514.861 891.362 515.411 884.038C516.248 872.882 520.478 856.891 529.586 849.52C531.742 847.775 534.337 846.662 537.151 847.03C540.006 847.403 542.747 849.265 544.392 851.589C548.605 857.545 548.384 868.468 547.112 875.387C546.166 884.892 543.107 893.441 538.992 902.014Z"/>
	<path fill="#FFC4BC" transform="scale(1.32422 1.32422)" d="M611.566 706.868C623.242 711.089 634.051 719.452 641.771 729.079C634.742 730.379 627.833 731.752 621.043 734.044C619.833 735.59 618.882 737.404 617.873 739.088C620.775 745.039 626.12 753.48 632.485 755.986L634.407 755.739C640.753 754.666 646.48 752.354 652.115 749.295L651.353 758.113C649.963 761.425 649.24 764.956 646.27 767.256C642.669 765.884 639.018 764.547 635.625 762.701C631.58 760.499 627.494 757.434 623.127 755.984C621.373 755.401 619.677 755.414 617.851 755.483C614.859 755.083 612.113 754.96 609.111 755.398C600.503 756.655 578.385 764.063 570.866 768.666C569.205 769.258 567.548 769.838 565.865 770.363C565.567 768.075 566.319 766.793 567.326 764.812C556.288 753.339 555.315 755.242 542.371 748.669C534.461 744.652 526.14 739.331 519.548 733.401C532.166 730.64 544.637 726.593 556.994 722.841L586.829 714.031C595.037 711.536 603.215 708.847 611.566 706.868Z"/>
	<path fill="#3D405B" transform="scale(1.32422 1.32422)" d="M591.973 721.201C593.133 721.079 594.465 720.991 595.595 721.312C599.703 722.48 602.167 727.082 604.251 730.471C602.682 732.121 600.929 733.449 598.809 734.321C591.169 737.463 568.222 740.607 559.121 741.803C556.322 742.07 552.456 742.708 549.932 741.227C548.849 740.592 548.232 739.414 548.086 738.189C547.923 736.825 548.606 735.542 549.443 734.524C555.079 727.672 582.738 722.278 591.973 721.201Z"/>
	<path fill="#9E512A" transform="scale(1.32422 1.32422)" d="M590.461 725.911C589.812 727.906 588.358 728.694 586.496 729.628C582.679 731.542 578.401 732.864 574.332 734.142C569.388 734.882 560.567 738.033 556.064 737.136L555.864 736.353C556.627 735.215 557.441 734.414 558.705 733.86C562.483 732.204 567.392 731.565 571.451 730.632Q581.016 728.513 590.461 725.911Z"/>
	<path fill="#FFC4BC" transform="scale(1.32422 1.32422)" d="M281.126 801.004C299.293 786.186 317.5 774.27 338.658 764.143C349.077 785.12 366.297 815.26 386.392 827.989C378.882 841.28 373.59 853.705 373.693 869.288C373.779 882.277 377.579 891.607 386.864 900.683Q379.93 898.526 373.215 895.76C323.351 875.255 301.316 849.415 281.126 801.004Z"/>
	<path fill="#9B8CC4" transform="scale(1.32422 1.32422)" d="M191.209 370.171C195.5 362.126 204.156 354.56 211.578 349.409C221.012 342.86 241.752 333.287 253.323 335.412Q255.094 335.415 256.863 335.505Q258.632 335.594 260.394 335.77Q262.157 335.945 263.909 336.206Q265.661 336.466 267.398 336.812Q269.135 337.158 270.853 337.587Q272.571 338.017 274.267 338.529Q275.962 339.042 277.63 339.636Q279.299 340.23 280.937 340.905Q282.574 341.58 284.177 342.333Q285.78 343.087 287.344 343.917Q288.909 344.747 290.431 345.653Q291.953 346.558 293.43 347.537Q294.906 348.515 296.333 349.564Q297.76 350.613 299.135 351.73Q300.509 352.847 301.828 354.029Q303.146 355.212 304.406 356.457C324.944 377.041 334.12 409.007 333.98 437.529C333.913 451.199 331.518 473.674 323.898 485.417C321.702 492.702 314.251 501.074 309.1 506.715C307.156 505.905 305.158 505.154 303.253 504.262C301.56 503.521 299.924 502.752 298.31 501.852C297.422 499.227 300.374 498.87 301.149 496.708L299.933 496.026C300.323 494.956 300.469 495.035 301.349 494.405L302.207 495.481L302.924 495.345C305.196 492.155 306.679 488.944 306.647 484.983C306.633 483.198 306.546 482.164 307.799 480.779L308.468 482.446C310.324 481.178 308.148 477.02 309.65 475.178C309.841 475.466 310.036 475.751 310.22 476.043C310.241 476.078 310.256 476.116 310.274 476.152L310.15 475.695L310.931 475.775C312.786 472.174 313.804 467.948 314.427 463.961C313.597 463.807 312.848 463.826 312.006 463.829C310.303 466.172 309.592 471.175 308.684 474.042C305.635 483.666 301.783 492.723 295.548 500.71C289.703 497.6 284.01 494.08 278.275 490.766C282.908 482.438 286.919 473.767 289.394 464.537C295.942 440.116 290.517 412.856 277.838 391.305C269.555 377.225 255.342 363.585 239.131 359.548C220.281 354.855 206.986 360.802 191.209 370.171Z"/>
	<path fill="#3D405B" transform="scale(1.32422 1.32422)" d="M287.593 355.425C297.048 364.047 303.86 375.67 308.761 387.388C309.955 390.133 315.54 404.544 314.486 406.715C314.323 407.051 313.89 407.574 313.65 407.88C313.786 408.036 313.92 408.193 314.058 408.348C314.925 409.322 314.229 408.564 315.082 409.374C315.639 409.904 315.882 410.404 316.212 411.084C315.779 412.334 315.336 413.577 314.971 414.848L315.375 415.364C316.529 416.864 317.737 418.287 317.346 420.317C317.225 420.944 316.946 421.388 316.576 421.884C317.544 425.349 318.276 427.425 316.96 430.966C317.661 433.031 317.76 434.203 317.359 436.332C316.501 440.882 317.498 451.894 314.595 454.872C313.759 453.612 313.477 452.582 313.699 451.066C314.354 446.604 314.901 439.506 314.469 435.104C314.306 433.437 314.511 432.116 314.892 430.493L314.555 424.536L314.401 424.458C314.013 423.677 313.989 423.892 313.992 423.208C314.017 418.48 313.398 413.502 312.665 408.827C310.597 403.177 308.748 396.404 307.517 390.511C305.939 389.086 298.387 372.267 295.993 368.372C293.462 364.253 289.004 360.827 286.996 356.561L287.593 355.425Z"/>
	<path fill="#9B8CC4" transform="scale(1.32422 1.32422)" d="M428.955 635.662C438.542 631.058 449.853 625.657 460.148 623.279C469.307 621.164 479.711 622.099 489.144 621.095Q517.554 617.869 545.413 611.433L547.252 615.61C556.479 629.969 563.944 644.754 571.494 660.029C576.066 669.278 580.981 678.538 584.495 688.257C552.815 681.075 508.228 684.325 479.196 700.372C468.663 690.014 457.856 679.932 447.662 669.236C438.222 659.332 429.433 648.846 419.594 639.324C422.687 637.968 425.747 636.716 428.955 635.662Z"/>
	<path fill="#E07A5F" transform="scale(1.32422 1.32422)" d="M302.554 253.228C313.411 230.241 333.817 203.77 351.365 185.397Q353.688 182.97 356.086 180.617Q358.483 178.264 360.952 175.986Q363.422 173.708 365.961 171.508Q368.5 169.308 371.106 167.188Q373.712 165.069 376.383 163.031Q379.054 160.993 381.787 159.039Q384.52 157.085 387.312 155.217Q390.104 153.349 392.953 151.569Q395.802 149.789 398.705 148.098Q401.608 146.407 404.562 144.807Q407.516 143.207 410.518 141.7Q413.521 140.193 416.569 138.78Q419.616 137.366 422.707 136.049Q425.797 134.731 428.927 133.51Q432.056 132.289 435.222 131.165Q438.388 130.042 441.588 129.018C449.46 126.425 459.658 123.125 467.987 123.1C473.473 123.084 478.746 126.294 483.552 128.663C501.476 137.502 519.749 148.483 534.014 162.644C527.025 169.658 502.521 195.403 498.794 202.551Q491.136 204.339 483.435 205.931C488.422 193.055 493.797 181.11 501.263 169.464Q499.409 169.494 497.557 169.597C480.559 170.629 457.123 183.941 443.965 194.549C434.819 201.923 426.856 210.282 419.039 219.019C384.423 221.769 338.806 240.103 309.006 258.083C306.929 256.374 304.721 254.82 302.554 253.228Z"/>
	<path fill="#9B8CC4" transform="scale(1.32422 1.32422)" d="M221.082 512.045C212.231 510.997 202.205 504.626 195.785 498.681C178.233 482.426 168.872 457.419 168.09 433.747C167.505 416.057 173.261 393.551 185.784 380.485C196.248 369.569 209.95 364.431 224.94 364.209C239.592 363.991 251.91 371.081 262.1 381.15C278.004 396.866 284.956 420.309 285.006 442.251C285.038 456.248 282.219 468.942 275.76 481.337C274.452 483.846 273.133 486.813 271.128 488.836L269.926 488.645C269.495 489.587 269.054 490.488 268.757 491.483C311.502 514.883 355.368 534.737 401.819 549.621C418.288 554.898 434.313 559.699 451.286 563.115L449.533 568.367C444.321 567.298 439.088 566.261 433.915 565.013C393.803 555.332 345.185 536.855 308.241 518.228C300.356 514.252 292.691 509.75 284.965 505.472C277.807 501.509 263.5 494.526 259.287 487.613C257.855 490.016 256.833 492.639 255.727 495.204C258.535 497.401 261.345 499.521 264.311 501.5C252.139 510.225 239.525 515.476 224.385 512.917C223.291 512.732 222.103 512.486 221.082 512.045Z"/>
	<path fill="#0C0D1D" transform="scale(1.32422 1.32422)" d="M259.965 486.782C259.861 486.461 259.959 486.107 259.973 485.77C261.369 485.374 262.264 485.772 263.664 486.093L269.926 488.645C269.495 489.587 269.054 490.488 268.757 491.483L259.965 486.782Z"/>
	<path fill="#3D405B" transform="scale(1.32422 1.32422)" d="M214.836 389.197C222.55 389.774 228.952 392.484 234.684 397.663C245.623 407.548 251.979 424.887 252.584 439.373C253.155 453.057 249.792 468.551 240.188 478.829C234.377 485.048 227.623 487.373 219.282 487.61C211.764 487.335 204.835 484.209 199.21 479.297C188.125 469.614 182.387 453.357 181.42 439.001C180.484 425.119 183.944 409.891 193.326 399.228C199.098 392.668 206.259 389.815 214.836 389.197Z"/>
	<path fill="#9B8CC4" transform="scale(1.32422 1.32422)" d="M211.989 395.614C216.456 395.449 220.505 396.471 224.432 398.571C234.819 404.125 241.03 415.534 244.112 426.517C247.7 439.299 247.508 455.139 240.793 466.922C236.895 473.762 231.396 478.501 223.719 480.55C218.047 481.039 212.837 480.305 207.863 477.363C198.228 471.663 192.39 459.856 189.704 449.375C186.34 436.247 187.28 420.221 194.452 408.447C198.626 401.593 204.171 397.509 211.989 395.614Z"/>
	<path fill="#9B8CC4" transform="scale(1.32422 1.32422)" d="M217.849 337.552C218.085 323.934 221.485 309.65 225.263 296.61C229.734 281.176 234.711 266.156 241.246 251.457Q242.296 249.033 243.395 246.631Q244.494 244.23 245.642 241.851Q246.789 239.472 247.985 237.117Q249.181 234.762 250.425 232.432Q251.669 230.101 252.96 227.797Q254.251 225.493 255.588 223.215Q256.926 220.938 258.31 218.688Q259.693 216.438 261.122 214.217Q262.552 211.995 264.026 209.804Q265.5 207.612 267.019 205.451Q268.537 203.29 270.1 201.16Q271.662 199.03 273.267 196.933Q274.872 194.835 276.52 192.771Q278.168 190.707 279.857 188.676Q281.547 186.646 283.277 184.65Q285.008 182.655 286.778 180.695Q288.549 178.735 290.359 176.812Q292.17 174.888 294.019 173.002Q295.868 171.116 297.755 169.268Q299.642 167.42 301.567 165.611Q303.491 163.802 305.452 162.032Q307.413 160.262 309.409 158.533Q311.406 156.804 313.437 155.116Q315.468 153.427 317.534 151.781Q319.599 150.134 321.697 148.53Q323.796 146.926 325.926 145.365Q328.057 143.804 330.219 142.286Q332.381 140.769 334.573 139.296Q336.766 137.823 338.988 136.395Q341.21 134.967 343.461 133.585Q345.711 132.202 347.99 130.866Q350.268 129.53 352.573 128.24C387.137 109.263 425.947 102.404 465.065 104.348C473.461 104.765 483.072 105.021 491.154 107.373C499.164 108.209 507.586 110.778 515.268 113.177C553.487 125.108 583.808 148.407 608.821 179.246C636.765 213.699 652.921 255.276 668.782 296.167C675.232 312.797 682.539 329.674 685.549 347.346C681.143 340.61 677.186 333.599 672.674 326.93C663.7 313.666 653.968 301.527 643.57 289.382C642.737 288.409 641.084 286.837 641.294 285.437C641.427 284.548 641.846 284.09 642.371 283.397C643.22 282.159 643.798 280.763 644.218 279.325C649.844 260.071 635.518 230.481 625.88 213.68C618.006 199.954 608.378 186.084 597.825 174.262C576.182 150.014 543.168 126.536 511.632 118.044C507.11 117.104 502.641 116.28 498.059 115.678C491.564 115.082 485.587 115.171 479.103 115.645C475.567 115.903 471.794 116.498 468.277 116.347C460.743 117.472 453.218 118.558 445.846 120.528C397.576 133.424 353.913 166.521 324.403 206.365C296.922 243.469 277.346 285.108 269.501 330.791C267.054 330.347 264.585 329.946 262.148 329.45C263.895 324.852 264.002 320.183 264.651 315.351C265.066 312.264 268.668 307.69 268.717 305.214C268.743 303.891 267.236 303.324 268.153 301.668C269.768 298.75 271.311 301.072 269.617 296.335C266.132 300.868 261.104 323.113 260.923 329.546C244.209 328.715 233.181 330.978 217.849 337.552Z"/>
	<path fill="#3D405B" transform="scale(1.32422 1.32422)" d="M326.062 189.35L325.794 188.558C326.357 183.426 352.649 159.672 358.034 155.222Q362.584 151.476 367.319 147.968Q372.054 144.46 376.962 141.198Q381.87 137.936 386.938 134.928Q392.006 131.921 397.221 129.176Q402.436 126.432 407.785 123.957Q413.133 121.482 418.601 119.284Q424.069 117.085 429.642 115.169Q435.215 113.252 440.878 111.623C450.975 108.786 461.261 106.447 471.791 107.459C469.746 107.928 467.683 108.277 465.652 108.814C420.913 113.734 372.26 142.013 340.997 173.439C337.843 176.609 331.886 181.606 329.521 184.864C329.067 185.489 328.833 186.1 328.503 186.78C327.992 187.834 326.945 188.607 326.062 189.35Z"/>
	<path fill="#9B8CC4" transform="scale(1.32422 1.32422)" d="M276.17 586.481C287.548 592.253 298.892 597.82 310.89 602.207C338.917 612.454 369.208 616.868 398.677 620.7Q401.492 624.247 404.381 627.735C414.179 639.776 423.896 652.057 434.277 663.594C425.709 666.659 417.578 670.1 409.736 674.78C388.393 687.516 367.013 709.148 355.144 730.982C348.919 724.166 342.631 717.331 336.773 710.198C333.246 705.903 330.186 701.06 326.413 697.002C335.912 716.989 346.891 734.413 362.988 749.774C354.77 752.882 346.403 755.66 338.36 759.202C319.579 767.851 301.516 778.215 285.31 791.144C283.268 785.493 281.925 779.413 280.428 773.596C271.73 739.805 269.4 706.25 269.471 671.482C269.498 658.222 269.582 644.887 270.62 631.662C271.815 616.426 274.182 601.594 276.17 586.481Z"/>
	<path fill="#E07A5F" transform="scale(1.32422 1.32422)" d="M194.767 507.538L195.523 507.528C197.605 509.161 200.033 510.451 201.985 512.215C207.552 517.242 210.63 526.444 214.93 532.679C228.935 552.981 247.736 569.413 268.863 581.891C263.824 595.173 262.33 609.234 259.866 623.109C244.366 610.476 227.408 599.784 207.76 595.386C231.494 608.214 240.489 615 257.723 635.727C246.15 631.362 235.291 629.215 222.903 629.026C235.552 634.055 247.119 639.139 257.311 648.41C255.42 664.346 255.114 679.914 255.282 695.94C243.645 692.822 233.569 691.741 221.585 692.266C230.488 695.099 248.827 698.371 254.89 705.038C255.838 706.08 256.365 707.225 256.245 708.656C256.171 709.54 255.968 709.48 255.357 710.004C246.689 711.637 237.885 714.428 230.078 718.523C239.163 716.466 247.231 717.664 256.397 718.579C257.215 734.11 260.017 749.746 263.374 764.91C252.462 765.453 241.054 769.152 231.257 773.939C240.708 772.387 250.77 771.26 260.345 772.006C261.981 772.134 263.741 772.195 264.876 773.519C264.443 775.794 257.897 780.557 256.03 782.883C253.464 786.079 251.553 789.585 249.675 793.212C254.965 788.423 260.911 785.07 267.32 782.016C272.835 801.517 279.763 819.408 289.569 837.153C284.358 838.958 279.352 841.292 274.443 843.791C260.512 851.274 247.098 860.635 233.553 868.862C254.203 861.543 272.514 849.307 293.86 843.489C296.953 847.291 299.769 851.343 302.661 855.301C290.242 865.688 272.1 872.174 256.758 877.107C221.328 888.498 206.034 887.642 172.796 870.48C122.939 844.738 103.627 826.145 86.3702 771.791Q84.634 766.178 83.0469 760.522Q81.4598 754.866 80.023 749.169Q78.5862 743.473 77.3006 737.74Q76.015 732.008 74.8816 726.243Q73.7482 720.478 72.7678 714.686Q71.7873 708.893 70.9605 703.077Q70.1337 697.261 69.4611 691.424Q68.7885 685.588 68.2706 679.736Q67.7527 673.884 67.3898 668.02Q67.027 662.157 66.8195 656.285Q66.6119 650.414 66.5598 644.539Q66.5077 638.665 66.6111 632.791Q66.7145 626.917 66.9733 621.048Q67.2322 615.178 67.6462 609.318Q68.0603 603.458 68.6293 597.61Q69.1983 591.763 69.9218 585.933C70.949 578.221 71.9005 564.133 75.6063 557.505C83.392 543.579 135.397 525.203 151.47 519.993C165.704 515.379 180.351 511.572 194.767 507.538Z"/>
	<path fill="#3D405B" transform="scale(1.32422 1.32422)" d="M88.1958 557.865C88.9754 559.245 88.4366 594.012 88.5434 599.939C88.9852 624.451 92.1358 649.264 96.0099 673.445C104.779 728.178 118.13 783.718 150.717 829.597C156.323 837.489 162.329 845.035 169.31 851.769C173.494 855.805 178.339 859.335 182.243 863.616L181.721 863.88C163.621 851.821 151.085 838.071 139.728 819.647Q132.528 808.043 126.525 795.778Q120.523 783.512 115.777 770.707C96.7801 720.273 85.2159 650.197 85.6314 596.507C85.724 584.534 85.4187 569.535 88.1958 557.865Z"/>
	<path fill="#3D405B" transform="scale(1.32422 1.32422)" d="M92.6112 561.377C100.731 564.006 126.37 593.639 132.613 601.876C178.74 662.731 211.555 753.396 216.449 829.661C217.44 845.102 217.875 860.042 215.759 875.432L215.467 876.168C214.333 873.582 213.192 843.076 212.696 837.525Q211.427 823.262 209.337 809.096C197.132 723.327 156.107 622.172 92.6112 561.377Z"/>
	<path fill="#E07A5F" transform="scale(1.32422 1.32422)" d="M636.044 47.0202C644.12 48.9037 652.397 49.9525 660.515 51.667C703.533 61.1589 739.721 75.0308 773.935 103.164C778.665 107.474 784.791 112.16 788.663 117.179C791.01 119.671 794.178 122.389 795.993 125.248C794.729 153.261 795.592 181.656 795.569 209.705C795.508 286.094 797.149 362.632 795.555 438.999L677.086 596.543C665.841 611.451 654.343 626.164 643.213 641.158C639.209 646.55 633.761 652.59 630.861 658.617C613.798 638.376 595.219 620.712 576.081 602.493C582.298 601.1 588.536 598.704 594.496 596.452C639.355 579.502 687.206 547.571 707.325 502.58C725.296 462.39 721.28 430.924 706.124 391.057C713.615 378.894 714.975 364.035 714.252 350.065C712.961 325.118 704.182 300.241 688.032 280.951C682.188 273.97 675.409 267.871 668.668 261.779Q663.955 258.518 659.419 255.015C658.162 251.425 656.509 247.952 654.974 244.472C636.712 204.745 615.505 172.065 582.768 142.796Q575.097 136.108 566.706 130.349C572.639 121.824 579.821 113.981 586.617 106.129C600.042 90.6175 613.886 75.4734 627.125 59.8063C629.967 56.4429 635.367 51.7854 636.896 47.8083L636.044 47.0202Z"/>
	<path fill="#A0E4CB" transform="scale(1.32422 1.32422)" d="M773.935 103.164C778.665 107.474 784.791 112.16 788.663 117.179C766.156 146.692 741.953 174.975 718.132 203.433C701.798 222.946 686.002 243.147 668.668 261.779Q663.955 258.518 659.419 255.015C658.162 251.425 656.509 247.952 654.974 244.472C661.617 237.548 667.548 229.932 673.783 222.642C684.203 210.46 694.67 198.377 704.879 186.015L773.935 103.164Z"/>
	<path fill="#E07A5F" transform="scale(1.32422 1.32422)" d="M636.044 47.0202C644.12 48.9037 652.397 49.9525 660.515 51.667C703.533 61.1589 739.721 75.0308 773.935 103.164L704.879 186.015C694.67 198.377 684.203 210.46 673.783 222.642C667.548 229.932 661.617 237.548 654.974 244.472C636.712 204.745 615.505 172.065 582.768 142.796Q575.097 136.108 566.706 130.349C572.639 121.824 579.821 113.981 586.617 106.129C600.042 90.6175 613.886 75.4734 627.125 59.8063C629.967 56.4429 635.367 51.7854 636.896 47.8083L636.044 47.0202Z"/>
	<path fill="#A0E4CB" transform="scale(1.32422 1.32422)" d="M636.044 47.0202C644.12 48.9037 652.397 49.9525 660.515 51.667Q635.379 81.647 609.43 110.926C600.99 120.633 589.724 132.133 582.768 142.796Q575.097 136.108 566.706 130.349C572.639 121.824 579.821 113.981 586.617 106.129C600.042 90.6175 613.886 75.4734 627.125 59.8063C629.967 56.4429 635.367 51.7854 636.896 47.8083L636.044 47.0202Z"/>
	<path fill="#E07A5F" transform="scale(1.32422 1.32422)" d="M84.5626 539.951C57.4655 498.253 45.6893 437.478 48.5734 388.1C53.3541 306.252 96.3076 238.904 156.423 185.555C250.294 102.252 405.878 51.8317 529.426 44.2697Q563.255 42.1083 597.114 43.7265C610.127 44.4664 623.051 46.2383 636.044 47.0202L636.896 47.8083C635.367 51.7854 629.967 56.4429 627.125 59.8063C613.886 75.4734 600.042 90.6175 586.617 106.129C579.821 113.981 572.639 121.824 566.706 130.349C553.55 122.208 540.701 114.867 526.157 109.46C488.368 95.4115 438.864 93.8236 399.752 103.041C365.578 111.094 336.803 126.713 309.763 148.893C297.62 158.854 286.614 169.206 276.619 181.349C267.246 192.736 259.335 204.998 251.604 217.533C244.887 228.424 239.388 239.767 233.909 251.319C216.22 253.969 198.424 264.996 187.817 279.344C177.15 293.774 172.257 311.307 174.955 329.14C176.732 340.883 181.825 351.469 190.516 359.637C171.098 381.957 160.438 409.89 162.567 439.699C164.352 464.711 173.001 482.303 188.496 501.427C158.404 508.475 109.85 522.241 84.5626 539.951Z"/>
	<path fill="white" transform="scale(1.32422 1.32422)" d="M409.649 237.135C416.262 232.702 421.52 224.751 426.875 218.874C443.909 200.178 465.187 185 489.398 177.115C482.437 190.02 476.697 204.42 471.947 218.306C490.28 206.135 521.645 205.656 543.242 207.04C550.591 207.511 557.904 208.7 565.241 209.129C552.884 220.025 543.016 233.344 529.025 242.428C526.66 243.963 524.167 244.958 521.726 246.301C537.546 247.214 551.712 251.521 562.427 263.686C568.74 270.854 574.325 280.331 577.165 289.468C560.002 283.97 544.067 280.343 525.864 281.683C547.035 287.414 564.486 289.434 584.762 299.659C582.236 282.089 576.06 264.852 561.302 253.784C553.405 247.861 544.278 245.488 534.713 243.765C538.35 241.715 541.771 239.119 545.469 237.244C581.567 246.071 622.888 276.096 647.151 303.888C658.921 317.37 668.925 332.46 678.199 347.724C699.96 383.54 719.783 433.703 709.323 475.737C699.578 514.897 670.299 547.376 636.235 567.684C582.864 599.502 503.755 617.6 441.75 615.58C438.593 613.662 400.936 606.287 394.31 604.678C369.229 598.587 343.929 589.531 321.777 576.136C308.495 568.104 276.725 547.109 273.034 532.099C282.88 529.826 292.703 527.596 301.458 522.308C313.313 528.908 325.518 534.14 338.028 539.345C359.675 548.351 381.16 556.023 403.648 562.639C418.319 566.955 433.026 571.137 448.19 573.364C449.398 577.911 450.456 582.91 454.795 585.525C466.398 592.518 509.577 598.724 523.023 595.039C526.565 594.068 529.174 591.786 530.969 588.62C533.68 583.836 534.78 576.287 533.023 570.989C531.871 567.515 529.361 565.371 526.1 563.897C516.228 559.436 467.989 548.614 459.102 552.391C456.364 553.555 454.552 556.24 452.892 558.584C442.212 555.022 431.218 552.463 420.467 549.098C385.391 538.122 349.697 526.062 316.58 510.004C322.281 502.513 327.967 494.813 331.969 486.252C341.42 466.037 342.458 439.243 339.506 417.333C335.813 389.932 324.049 366.978 304.454 347.672C317.362 333.575 324.389 316.278 323.548 297.014C323.015 284.822 319.276 273.483 313.221 262.945C345.866 244.066 377.099 234.696 413.612 226.742C412.034 230.18 410.662 233.487 409.649 237.135Z"/>
	<path fill="#3D405B" transform="scale(1.32422 1.32422)" d="M633.695 491.246C622.849 491.233 612.276 488.791 602.664 483.67C597.557 480.949 591.742 476.707 590.138 470.876C589.292 467.803 589.826 464.733 591.426 462.003C596.474 453.389 610.633 448.666 619.702 446.335C626.364 444.624 640.56 441.931 646.614 445.826C648.921 447.31 650.162 449.744 650.713 452.372C653.504 465.659 644.349 478.445 637.35 488.737C637.643 493.582 637.977 498.435 635.778 502.927C638.249 505.164 640.557 507.56 644.173 507.338C646.888 507.171 648.987 505.316 650.617 503.29C652.967 500.368 654.71 496.631 656.512 493.337C655.813 498.631 653.983 506.246 649.586 509.654C647.485 511.283 644.848 511.742 642.264 511.307C639.418 510.828 634.157 507.726 632.675 508.755C632.548 508.843 632.433 508.946 632.312 509.041C631.222 512.53 624.653 516.857 621.488 518.61C613.221 523.191 603.279 525.702 594.023 522.831C588.419 521.092 583.552 517.306 580.836 512.06C579.106 508.717 577.675 503.43 579.039 499.758C579.471 498.596 579.997 497.713 581.145 497.173C583.576 498.624 582.49 502.143 582.987 504.62C583.54 507.38 585.244 510.589 587.044 512.729C590.528 516.868 595.761 518.99 601.087 519.316C608.991 519.8 619.077 516.115 624.965 510.87C630.862 505.617 633.273 498.97 633.695 491.246Z"/>
	<path fill="white" transform="scale(1.32422 1.32422)" d="M635.133 448.696C636.829 448.663 638.189 448.495 639.682 449.452C640.089 450.192 640.463 450.552 640.398 451.433C640.244 453.521 638.741 455.14 637.217 456.441C634.439 458.812 632.275 458.562 628.88 458.392C627.291 458.194 625.413 457.997 623.955 457.297C622.785 456.735 622.427 456.205 621.998 455.029C622.142 454.514 622.203 454.159 622.531 453.691C624.962 450.219 631.207 449.109 635.133 448.696Z"/>
	<path fill="#3D405B" transform="scale(1.32422 1.32422)" d="M625.694 316.195C631.821 315.936 638.176 318.678 643.258 321.9C670.745 339.333 694.937 383.172 701.719 414.81C703.919 425.073 703.828 436.851 697.736 445.839C693.866 451.549 688.432 454.375 681.851 455.748C668.733 455.7 656.191 449.187 645.939 441.47C621.835 423.327 608.488 389.287 604.565 360.123C602.987 348.392 602.335 333.592 610.178 323.756C614.311 318.574 619.347 316.822 625.694 316.195Z"/>
	<path fill="#9B8CC4" transform="scale(1.32422 1.32422)" d="M645.237 366.346C641.012 361.604 632.855 354.017 626.181 353.657C625.519 353.621 624.784 353.768 624.133 353.887L624.346 353.353C628.278 351.865 631.608 352.622 635.302 354.326C644.538 358.586 652.677 368.591 656.039 378.082C656.351 378.962 656.499 379.635 656.407 380.578C653.34 375.172 649.729 370.614 645.237 366.346Z"/>
	<path fill="#E07A5F" transform="scale(1.32422 1.32422)" d="M637.12 373.515C638.154 371.954 639.195 370.528 641.169 370.133C643.148 369.736 644.989 370.835 646.453 372.038C655.877 379.781 661.916 403.447 662.768 415.143C663.094 419.613 662.879 425.13 659.807 428.687C658.622 430.059 656.928 431.134 655.075 431.184C652.388 431.255 650.067 429.166 648.349 427.337C647.524 426.458 646.805 425.503 646.103 424.526C638.5 409.365 633.401 390.404 637.12 373.515Z"/>
	<path fill="#3D405B" transform="scale(1.32422 1.32422)" d="M505.183 337.725C520.501 337.988 532.171 341.527 543.182 352.494C558.828 368.077 571.633 405.27 571.666 427.191C571.714 459.376 557.899 489.748 535.214 512.268C513.682 533.643 488.236 546.048 457.692 545.936C442.331 544.814 426.571 540.297 414.794 529.987C400.07 517.097 392.562 497.169 391.465 477.995C389.326 440.589 409.288 402.984 433.615 375.774C452.606 354.533 476.17 339.349 505.183 337.725Z"/>
	<path fill="#9B8CC4" transform="scale(1.32422 1.32422)" d="M486.455 407.686C485.693 407.85 485.122 407.852 484.35 407.837L484.652 407.057C493.194 399.411 510.034 390.568 521.679 390.398C523.522 390.371 525.16 390.518 526.515 391.792L526.2 392.716C524.449 394.191 522.687 394.808 520.577 395.587L516.096 397.098C506.432 400.364 495.487 402.963 486.455 407.686Z"/>
	<path fill="#E07A5F" transform="scale(1.32422 1.32422)" d="M505.455 406.71C509.11 405.278 512.826 403.82 516.684 403.05C528.282 414.361 531.917 435.449 532.143 450.961C532.236 457.348 531.45 463.047 529.305 469.069C527.759 470.886 526.331 472.146 523.885 472.384C519.862 472.776 516.519 469.96 513.685 467.499C504.167 455.954 502.488 439.671 500.975 425.327C500.943 421.862 500.691 418.123 501.118 414.686C501.583 410.951 502.563 409.054 505.455 406.71Z"/>
</svg>
